<svg version="1.1" id="Layer_1" xmlns="http://www.w3.org/2000/svg" xmlns:xlink="http://www.w3.org/1999/xlink" x="0px" y="0px"
	 width="100%" viewBox="0 0 1301 1301" enable-background="new 0 0 1301 1301" xml:space="preserve">
<path fill="#FFFFFF" opacity="1.000000" stroke="none" 
	d="
M727.000000,1302.000000 
	C486.166656,1302.000000 245.833328,1301.989868 5.500041,1302.093506 
	C1.750815,1302.095093 0.906211,1301.249023 0.907070,1297.500000 
	C1.005725,866.833313 1.005725,436.166656 0.907070,5.500021 
	C0.906211,1.750947 1.750946,0.906214 5.500021,0.907072 
	C436.166656,1.005703 866.833313,1.005703 1297.500000,0.907072 
	C1301.249023,0.906214 1302.093872,1.750946 1302.093018,5.500021 
	C1301.994263,436.166656 1301.994385,866.833313 1302.093018,1297.500000 
	C1302.093872,1301.249023 1301.249268,1302.095825 1297.500000,1302.093750 
	C1107.500000,1301.987183 917.500000,1302.000000 727.000000,1302.000000 
z"/>
<path fill="#65389B" opacity="1.000000" stroke="none" 
	d="
M994.756287,984.799561 
	C991.954712,994.450500 987.384766,1003.277466 983.208435,1012.258057 
	C980.820496,1017.392822 979.436157,1022.881165 976.188660,1027.761963 
	C968.050659,1039.992920 956.694336,1045.455933 942.380920,1046.030151 
	C922.256714,1046.837524 902.171448,1048.378784 882.039368,1049.169678 
	C870.854065,1049.609009 859.662903,1050.473389 848.469788,1051.106812 
	C830.021057,1052.150513 811.585999,1053.342041 793.120300,1054.159912 
	C781.766113,1054.662598 770.413513,1055.509399 759.051270,1056.123047 
	C740.434631,1057.128174 721.829285,1058.285889 703.200928,1059.144775 
	C691.678833,1059.675903 680.159973,1060.499878 668.632935,1061.128296 
	C650.515625,1062.116089 632.416382,1063.359253 614.281433,1064.150269 
	C602.759949,1064.652832 591.241333,1065.505371 579.713318,1066.126343 
	C561.263000,1067.119751 542.821472,1068.245483 524.363464,1069.154785 
	C512.341736,1069.746948 500.315033,1070.433960 488.295807,1071.130371 
	C468.517273,1072.276123 448.785004,1074.223877 428.476257,1073.898926 
	C426.514038,1071.281494 428.412140,1069.354492 429.446655,1067.475220 
	C435.591431,1056.312500 442.111084,1045.361450 448.653381,1034.428833 
	C450.255188,1031.752075 450.985413,1028.559692 453.759583,1026.176514 
	C467.127136,1024.716064 480.168091,1024.308105 493.647766,1023.529907 
	C515.613647,1021.905701 537.164490,1021.053040 558.686768,1019.733032 
	C573.414490,1018.829712 588.163635,1018.031189 602.913086,1017.357239 
	C616.993896,1016.713989 631.067810,1015.803101 645.609253,1014.933228 
	C653.668823,1014.144348 661.302124,1014.026978 668.911255,1013.598145 
	C691.910950,1012.301819 714.909607,1010.985291 737.909485,1009.699524 
	C747.829346,1009.145020 757.751892,1008.010803 768.190796,1008.414917 
	C776.170105,1006.585510 783.905273,1007.247742 791.503174,1006.810425 
	C806.432495,1005.951111 821.373535,1005.083069 836.313599,1004.331055 
	C846.098572,1003.838562 855.926575,1003.716553 866.131470,1002.525818 
	C883.376404,1001.850403 900.137634,1000.648804 916.914429,999.814392 
	C931.704346,999.078796 946.472290,997.819275 961.280823,997.559143 
	C971.870422,997.373047 981.221008,994.203674 989.217590,987.186096 
	C990.699585,985.885437 992.077820,984.305664 994.756287,984.799561 
z"/>
<path fill="#7E48B6" opacity="1.000000" stroke="none" 
	d="
M378.312378,876.013062 
	C375.725098,872.392700 376.857666,868.118469 376.259583,864.160706 
	C374.542542,852.798401 374.149231,841.243103 372.960327,829.792236 
	C371.469788,815.435608 369.627014,801.115784 368.090363,786.763611 
	C367.232086,778.747070 366.814117,770.683533 365.968781,762.665344 
	C364.782471,751.413025 363.301392,740.191833 362.102722,728.940613 
	C361.266113,721.087952 360.789154,713.197266 359.976837,705.341675 
	C358.761963,693.592834 357.357666,681.863831 356.103424,670.118896 
	C355.335205,662.925232 354.620239,655.724121 354.017517,648.514954 
	C352.991577,636.243591 351.457550,624.027039 350.210175,611.783875 
	C349.427399,604.100708 348.755890,596.388123 347.974426,588.696533 
	C346.763702,576.780579 345.337585,564.886719 344.094879,552.973877 
	C343.309875,545.448792 342.771698,537.897827 341.981659,530.373291 
	C340.748230,518.626404 339.141418,506.912628 338.183838,495.144897 
	C337.569641,487.597168 336.887421,480.067993 336.024841,472.545807 
	C334.622498,460.316986 333.009338,448.095367 332.167664,435.823883 
	C331.313324,423.367584 327.455811,410.609070 333.335510,398.481476 
	C338.405243,388.024475 342.915283,377.334320 347.662750,366.742798 
	C348.931885,363.911438 350.134369,361.050140 351.676239,357.997894 
	C352.940094,358.640564 353.207581,359.777191 353.158905,360.962982 
	C352.472809,377.677979 355.681183,394.081024 357.141724,410.622253 
	C358.985962,431.509338 361.428467,452.337585 363.473602,473.205261 
	C365.551392,494.406006 367.856049,515.583313 370.010864,536.776001 
	C371.340851,549.856201 372.443207,562.961731 374.361572,576.435059 
	C375.587433,596.298645 378.174591,615.572449 380.051361,634.915161 
	C382.377869,658.893433 384.947510,682.847900 387.564972,706.796387 
	C389.351776,723.144958 390.714111,739.535217 392.484253,756.332642 
	C395.268433,784.500916 398.682831,812.155823 401.078552,840.318054 
	C394.378082,850.088440 389.223846,860.345825 383.266632,870.118469 
	C381.977966,872.232422 380.908661,874.544128 378.312378,876.013062 
z"/>
<path fill="#FFD444" opacity="1.000000" stroke="none" 
	d="
M803.554565,318.846344 
	C804.677856,319.760010 805.307739,320.626282 806.113159,321.774902 
	C810.935608,326.636444 812.535950,332.808777 814.864929,338.586548 
	C815.540405,340.262390 815.941895,342.053833 816.802612,344.106323 
	C817.287109,345.875275 817.343445,347.287720 817.284668,349.158966 
	C817.116882,350.554230 816.816040,351.430328 815.832275,352.477386 
	C812.227478,354.062531 808.854553,353.597961 805.547607,353.598694 
	C695.739624,353.623230 585.931580,353.620026 476.123566,353.614197 
	C471.790894,353.613953 467.459778,353.632721 462.664825,353.806702 
	C460.360687,353.327179 459.845276,351.861115 460.071289,350.344635 
	C461.612823,340.001587 463.902863,329.888092 469.954498,321.063782 
	C470.516785,320.243866 471.340668,319.656219 472.682831,319.046692 
	C475.743774,318.241028 478.416656,318.387207 481.074860,318.386902 
	C586.585693,318.375305 692.096558,318.386902 797.607361,318.375946 
	C799.436218,318.375763 801.273193,318.271881 803.554565,318.846344 
z"/>
<path fill="#BE7BFF" opacity="1.000000" stroke="none" 
	d="
M373.352295,577.256958 
	C370.709290,561.604614 369.531952,546.091370 367.965729,530.618347 
	C366.181976,512.996399 364.078125,495.407074 362.250610,477.789337 
	C360.729675,463.127197 359.478546,448.437195 357.976959,433.772919 
	C356.476196,419.116638 354.439301,404.504730 353.347900,389.820557 
	C352.579071,379.476746 349.844269,369.164429 352.011566,358.238708 
	C357.887146,338.048553 372.507690,327.010437 392.785095,327.006378 
	C411.052063,327.002716 429.320435,326.893494 447.585022,327.102753 
	C451.925018,327.152496 456.044128,325.379639 460.841614,326.177063 
	C458.485809,334.565948 455.468933,342.791077 450.713196,350.511444 
	C434.667877,350.383087 419.039490,350.531616 403.411591,350.471008 
	C398.076172,350.450317 392.788910,351.189697 387.529633,351.814423 
	C379.553192,352.761932 374.252869,361.044250 375.025787,370.067047 
	C376.486420,387.118347 378.151184,404.146210 380.303864,421.125061 
	C380.471252,422.445312 380.503418,423.777191 380.471313,425.553467 
	C383.180206,451.663239 386.074707,477.308624 388.564575,502.997253 
	C389.769379,515.427673 391.000519,527.856445 392.421936,540.703064 
	C392.397491,542.835510 392.311096,544.534485 392.868958,546.609863 
	C393.164764,547.855652 393.260925,548.702698 393.339050,549.983765 
	C394.008301,559.528992 395.341431,568.583374 395.790527,577.722412 
	C395.908539,580.123718 395.744568,582.342529 394.713318,584.506714 
	C392.772552,588.579407 386.111328,589.531738 384.828552,585.496704 
	C382.910645,579.463623 378.638977,578.426208 373.352295,577.256958 
z"/>
<path fill="#FFE24B" opacity="1.000000" stroke="none" 
	d="
M803.902954,318.591919 
	C802.289246,320.843384 799.967834,319.958282 797.916199,319.959198 
	C689.591370,320.007294 581.266479,320.003784 472.473328,320.010651 
	C471.464569,317.562347 473.233734,316.167755 474.761688,314.302246 
	C478.243866,310.193298 482.912903,309.350159 487.385193,309.101471 
	C501.769623,308.301636 516.210510,308.416016 530.580200,307.735901 
	C542.675781,307.163391 554.745972,307.283997 566.825073,307.030701 
	C568.367737,306.998352 569.743958,306.656952 571.515259,305.960754 
	C576.837585,305.717621 581.660645,304.366669 586.998291,304.878479 
	C593.389221,307.028442 592.153137,301.533783 593.959473,298.668640 
	C598.100647,297.556366 598.876709,294.935272 598.526855,291.406677 
	C598.210693,288.218719 596.870605,284.972290 598.958618,281.470337 
	C601.087402,279.762970 603.233582,279.487030 605.405762,279.475861 
	C626.989990,279.364716 648.574524,279.383789 670.158813,279.468506 
	C672.314087,279.476959 674.511597,279.566803 676.509216,281.646912 
	C674.469910,288.262482 677.807068,294.357300 677.417969,300.586182 
	C677.309448,302.322784 679.062500,303.000336 681.030701,303.045898 
	C701.295898,303.514923 721.529236,302.095764 741.770508,301.659058 
	C752.853149,301.419952 764.031616,300.555542 775.044861,301.256958 
	C787.018005,302.019501 796.759094,308.266815 803.902954,318.591919 
z"/>
<path fill="#5BCE8F" opacity="1.000000" stroke="none" 
	d="
M885.758240,337.335602 
	C890.502380,330.711060 893.718933,323.494873 898.907654,317.552917 
	C903.438110,312.364838 909.095886,311.716309 915.008179,313.994049 
	C927.479431,318.798492 939.830017,323.921387 952.175842,329.044647 
	C963.024963,333.546875 973.737305,338.382721 984.625305,342.786438 
	C995.766052,347.292419 998.846313,354.348175 994.197937,365.651276 
	C993.952087,366.249207 993.957642,366.950623 993.530884,367.802612 
	C992.637939,368.355438 992.490295,368.949585 992.193848,369.812805 
	C992.035706,370.076630 992.010925,370.010773 992.046143,370.010437 
	C979.062378,391.689575 965.225098,412.855560 951.743530,434.244507 
	C941.448853,450.577362 931.202148,466.940918 920.782471,483.194946 
	C919.879456,484.603668 919.052246,486.070557 916.864746,486.541077 
	C913.247925,486.368073 910.015259,486.198608 906.788635,486.708405 
	C904.980103,486.994171 903.214172,487.053741 901.680786,485.114014 
	C900.576782,481.766022 902.762939,479.780945 903.982117,477.515625 
	C905.475586,474.740509 907.507874,472.280243 909.078247,469.109283 
	C925.936768,443.102325 942.140869,417.117859 958.533813,391.253204 
	C964.592346,381.694000 970.447266,372.002960 976.766907,362.612549 
	C978.810791,359.575531 978.721680,357.954437 974.903015,356.390381 
	C955.652710,348.505768 936.469666,340.454590 917.268677,332.448395 
	C910.254211,329.523590 910.143188,329.530151 906.057556,336.189697 
	C889.694946,362.861267 873.219727,389.463501 856.807678,416.104614 
	C845.546326,434.384735 834.340759,452.698822 822.902832,471.317841 
	C822.024719,472.470581 821.283569,473.207642 819.840698,473.638306 
	C814.708557,472.713470 809.543945,474.812561 804.890991,471.373901 
	C803.864746,468.693481 805.149597,466.832581 806.265015,465.035889 
	C819.457275,443.785370 832.537537,422.465790 845.893188,400.890137 
	C854.260681,387.129883 862.689941,373.833344 871.013184,360.051788 
	C876.212585,352.512970 879.983643,344.478973 885.758240,337.335602 
z"/>
<path fill="#FFD953" opacity="1.000000" stroke="none" 
	d="
M474.660645,314.078430 
	C474.801788,316.193878 473.558075,317.805389 472.148254,319.710449 
	C465.260895,329.684174 462.896118,340.849426 461.017090,352.595947 
	C463.061676,355.508148 462.447510,358.363770 462.061768,361.153015 
	C461.464325,365.473358 461.418091,369.762482 462.136322,374.084290 
	C462.630096,377.055267 464.198212,378.453644 467.194153,378.401520 
	C468.690765,378.375488 470.194336,378.495087 471.689423,378.423706 
	C496.447144,377.241913 521.244202,377.148651 545.992310,375.618958 
	C555.783447,375.013763 565.631042,374.771118 575.416382,374.675629 
	C592.232300,374.511566 609.040894,373.847290 625.816406,373.193237 
	C648.580017,372.305664 671.386536,372.311584 694.116394,370.546570 
	C696.442810,370.365875 698.777771,370.417755 701.108765,370.438477 
	C728.577820,370.682556 755.985291,368.602966 783.442566,368.185791 
	C792.067200,368.054718 800.727295,367.591797 809.376648,367.393341 
	C814.661316,367.272064 815.339294,366.423279 815.424622,361.192078 
	C815.470337,358.390076 814.308228,355.584198 815.715454,352.399719 
	C816.001343,351.195007 816.017334,350.380219 816.073669,349.159973 
	C818.713074,349.599030 818.490723,352.039917 818.908447,353.988220 
	C820.001953,359.088440 820.382385,364.307129 821.291870,369.904358 
	C821.509033,373.494781 821.907166,376.649750 820.303589,380.044739 
	C814.044434,382.187408 807.884827,382.503174 801.762268,382.530731 
	C776.285889,382.645538 750.856384,384.249237 725.390442,384.786804 
	C706.265869,385.190430 687.136047,386.003265 668.013000,386.702972 
	C637.909058,387.804413 607.804382,388.800018 577.695129,389.737701 
	C558.567566,390.333374 539.430664,390.912933 520.316589,391.749390 
	C498.201874,392.717224 476.061005,392.894714 453.962769,394.210876 
	C449.183868,394.495514 447.644928,393.244049 447.516876,388.233246 
	C447.257568,378.085754 447.082062,367.927277 448.591064,357.360596 
	C448.578949,354.637817 449.006439,352.512970 450.686157,350.335602 
	C454.033234,342.169830 456.357117,334.015350 461.205750,326.587402 
	C464.755371,321.260956 468.899384,317.003143 474.660645,314.078430 
z"/>
<path fill="#B879FA" opacity="1.000000" stroke="none" 
	d="
M952.696899,682.669312 
	C952.910217,683.131348 952.957825,683.295288 953.071106,683.706665 
	C950.243042,686.855103 946.876160,688.775269 942.730591,689.303406 
	C940.117554,689.636353 938.966309,690.333801 937.937866,693.781128 
	C936.662170,698.057373 935.706543,703.138489 932.338135,706.765503 
	C925.875549,713.724243 918.550476,719.762756 911.482239,726.069336 
	C909.912231,727.470093 908.045532,728.777527 905.294189,728.257446 
	C903.211792,726.062805 903.100952,723.485474 902.687805,721.074341 
	C897.700989,691.972473 891.793335,663.037476 886.901733,633.503784 
	C886.894592,632.824158 886.911499,632.555420 887.003906,631.896240 
	C894.168945,618.744568 902.517822,606.765686 910.169617,594.353699 
	C910.794739,593.339661 911.707397,592.617798 913.358521,592.589539 
	C915.892944,593.940125 916.000488,596.176636 916.446106,598.290344 
	C918.366882,607.402222 919.512756,616.670837 922.649658,625.536560 
	C923.995056,629.339050 926.083374,630.857605 929.990417,630.670898 
	C934.135864,630.472900 938.344421,630.973694 942.640198,628.964966 
	C944.690674,637.163757 946.426208,645.409546 947.976013,653.690063 
	C949.115967,659.781067 950.012939,665.917603 951.031555,672.455750 
	C951.631897,673.632141 951.418457,674.544739 951.702820,675.674133 
	C951.921082,676.401001 951.977783,676.844543 952.083008,677.620361 
	C951.229004,679.519043 951.557922,680.974243 952.696899,682.669312 
z"/>
<path fill="#FFFE58" opacity="1.000000" stroke="none" 
	d="
M627.693237,176.439026 
	C643.784058,175.092590 658.301025,179.253754 670.991455,188.169220 
	C685.721191,198.517395 692.224976,214.409393 689.266968,232.672531 
	C688.586975,236.870911 688.381592,241.140488 686.925598,245.609772 
	C685.149048,247.250748 683.203552,247.528595 681.174438,247.535126 
	C672.541321,247.562927 663.907959,247.599350 655.275269,247.511658 
	C652.953796,247.488098 650.572205,247.453629 648.729248,244.974121 
	C648.096375,242.012466 650.121155,240.714005 651.446228,239.089798 
	C659.911499,228.713638 657.983093,216.385483 646.716858,209.061295 
	C635.129578,201.528366 617.405396,202.813309 607.037964,211.937866 
	C598.282471,219.643738 598.107849,231.974869 606.613159,240.051819 
	C608.120361,241.483109 610.331299,242.616623 609.027466,245.678680 
	C606.626038,247.695084 604.076660,247.440170 601.610718,247.487823 
	C593.988098,247.635132 586.358765,247.242569 578.310791,247.773712 
	C574.735657,247.445709 573.888794,244.887482 573.327637,242.522461 
	C568.481323,222.096344 571.391846,202.774872 589.761047,189.594269 
	C600.984070,181.541336 613.587646,177.398575 627.693237,176.439026 
z"/>
<path fill="#BA76F4" opacity="1.000000" stroke="none" 
	d="
M905.511475,728.393066 
	C916.149902,721.859680 924.360718,713.159058 932.576172,704.531128 
	C935.177429,701.799255 932.981140,696.375244 937.474854,694.257324 
	C937.584839,694.205444 937.589233,693.525940 937.421326,693.346436 
	C932.476379,688.060547 939.264038,688.606018 940.457153,688.567932 
	C945.085266,688.420105 948.477478,685.659485 952.764282,683.999329 
	C955.095093,693.678284 957.142761,703.385437 958.988892,713.130798 
	C961.240723,725.016907 963.342896,736.931580 965.466370,748.841614 
	C966.068420,752.218628 966.519287,755.622620 967.036438,759.435669 
	C968.347168,762.908997 966.557190,764.533569 964.203918,765.788391 
	C960.401978,767.815735 956.603699,769.886475 952.535522,771.327759 
	C949.640503,772.353577 948.860779,774.186890 949.313843,777.095886 
	C950.024902,781.661316 951.667297,786.109863 951.115356,791.217712 
	C948.809265,797.101013 943.274353,799.463623 939.483826,803.505066 
	C936.247681,806.955383 932.420959,809.912720 928.907349,813.150879 
	C926.903931,814.997131 924.832581,817.153809 921.243164,816.289062 
	C918.231079,810.427185 918.058228,804.207703 916.912048,798.223511 
	C912.887329,777.209167 909.102722,756.149475 905.246216,735.103394 
	C904.858398,732.986755 904.364868,730.857422 905.511475,728.393066 
z"/>
<path fill="#B754CD" opacity="1.000000" stroke="none" 
	d="
M995.106201,985.014404 
	C992.670898,984.682373 991.735840,986.813416 990.359070,988.109436 
	C983.423218,994.638428 975.061096,998.205139 965.742188,998.831665 
	C949.861389,999.899353 933.936279,1000.290405 918.037903,1001.120239 
	C901.327576,1001.992493 884.626709,1003.046204 867.460083,1003.987671 
	C865.621948,1001.304932 867.841553,1000.028809 869.224182,998.627869 
	C875.575928,992.192322 882.440491,986.308228 889.604065,980.195679 
	C894.682007,979.447266 899.429749,979.229736 904.559326,978.588379 
	C924.556580,978.163574 944.056885,976.400391 963.597961,975.389709 
	C974.149353,974.843994 980.815796,966.246277 979.097534,955.788025 
	C977.024780,943.172729 974.889160,930.563110 972.190186,917.632080 
	C971.703247,913.667053 970.513489,910.193054 971.022888,906.166870 
	C974.331848,901.957336 978.044006,898.659912 981.905762,895.514709 
	C985.276306,892.769531 988.552551,889.938293 989.773132,885.122681 
	C991.698608,892.953491 993.473999,901.010803 994.974182,909.119019 
	C997.139709,920.823486 998.618286,932.677246 1001.287903,944.260315 
	C1004.199890,956.894409 1003.520508,968.882751 997.650330,980.780273 
	C996.723938,981.297363 996.489136,981.874878 996.196899,982.799255 
	C996.028809,983.074463 996.006592,983.008362 996.041077,983.003296 
	C995.567810,983.395264 995.493103,983.995728 995.190430,984.814941 
	C995.039307,985.069824 995.070618,984.998535 995.106201,985.014404 
z"/>
<path fill="#6F3FA6" opacity="1.000000" stroke="none" 
	d="
M452.800415,1026.914673 
	C451.505585,1034.573975 446.309082,1039.986450 442.988159,1046.374512 
	C438.281281,1055.428467 432.200775,1063.734497 428.053040,1073.485596 
	C411.783325,1071.020996 401.049408,1061.822998 395.636230,1046.249878 
	C393.776184,1040.898682 393.739288,1035.280640 393.168274,1029.821045 
	C391.462311,1013.509705 390.077606,997.163940 388.041229,980.884338 
	C387.877228,979.573425 388.031586,978.222656 388.102905,976.449219 
	C393.590668,967.039673 398.661957,957.863953 404.136353,948.926575 
	C405.512482,946.679871 406.692871,944.096375 410.406982,944.518677 
	C412.247498,945.849670 412.181488,947.565491 412.358398,949.209290 
	C413.832275,962.903931 415.083923,976.621277 416.525757,990.318604 
	C418.442841,1008.531067 429.855865,1021.101318 447.854034,1025.068726 
	C449.467529,1025.424316 451.145477,1025.610962 452.800415,1026.914673 
z"/>
<path fill="#FFF453" opacity="1.000000" stroke="none" 
	d="
M648.669922,243.033737 
	C649.442505,246.350220 651.826294,245.993149 653.975952,245.995331 
	C664.626404,246.006165 675.276794,246.001404 686.383179,246.004242 
	C684.975891,255.667252 678.978455,263.924652 677.496765,273.763794 
	C677.123047,276.245392 677.268005,278.681885 676.902832,281.564423 
	C674.454651,281.223846 672.029480,280.961639 669.506348,280.968292 
	C648.396790,281.024109 627.287048,281.008301 606.177368,280.987457 
	C604.006714,280.985321 601.859863,280.977722 599.415527,281.942780 
	C597.433838,280.516876 597.218506,278.465698 596.952576,276.554321 
	C595.888062,268.904785 591.919800,263.274963 585.880615,258.565826 
	C582.118469,255.632156 577.703308,252.901321 576.759460,247.302673 
	C583.984558,244.824295 591.171814,246.555313 598.249817,245.992966 
	C601.846313,245.707245 605.589111,246.850983 609.459534,244.714752 
	C611.064819,244.078140 612.199524,244.333267 613.290588,244.748520 
	C624.720398,249.098633 635.931519,249.056549 646.868958,243.140106 
	C647.305481,242.903976 647.823242,242.882996 648.669922,243.033737 
z"/>
<path fill="#7844AF" opacity="1.000000" stroke="none" 
	d="
M410.370300,944.627075 
	C407.483429,945.129883 406.561829,947.116699 405.467865,949.020996 
	C400.676117,957.361877 395.819672,965.665588 391.006134,973.994080 
	C390.487244,974.891907 389.901520,975.646729 388.507751,975.958740 
	C386.261658,970.848511 386.743378,965.356079 386.097382,960.033997 
	C384.736908,948.825378 384.170807,937.522034 382.897583,926.300781 
	C381.035492,909.889343 378.875854,893.512146 377.973328,876.554321 
	C384.073395,865.846802 390.199188,855.589844 396.322021,845.331238 
	C397.072052,844.074585 397.421356,842.469116 399.516479,842.058472 
	C402.662079,845.780762 401.824371,850.345276 402.249542,854.506226 
	C404.684265,878.333740 408.044830,902.059631 410.109253,925.922363 
	C410.635681,932.007263 411.304077,938.135742 410.370300,944.627075 
z"/>
<path fill="#137A7A" opacity="1.000000" stroke="none" 
	d="
M916.788635,486.314423 
	C925.889404,472.505188 934.708923,458.865479 943.405457,445.147766 
	C958.685791,421.044861 973.885742,396.890930 989.146179,372.775360 
	C989.756287,371.811157 990.642090,371.021423 991.740356,370.080261 
	C987.649902,382.695862 981.250916,394.559448 976.488159,407.096130 
	C968.280762,428.699585 953.841736,446.653168 942.180481,466.227325 
	C935.142700,478.040771 927.551453,489.524536 919.977661,501.415375 
	C914.666809,511.321289 908.887451,520.552002 902.859375,530.053589 
	C895.880920,540.677551 889.560974,551.294922 882.727600,561.584045 
	C881.829224,562.936768 881.214478,564.548035 879.217896,565.320679 
	C876.139160,564.112671 872.902527,564.764465 870.106506,562.691650 
	C869.070984,560.019531 870.502197,558.227478 871.647522,556.481995 
	C874.097656,552.747925 876.256226,548.834839 878.950928,544.827698 
	C890.569397,526.658142 901.753906,508.644135 913.210571,490.802673 
	C914.192871,489.272980 914.956299,487.591797 916.788635,486.314423 
z"/>
<path fill="#CFA1FE" opacity="1.000000" stroke="none" 
	d="
M885.743286,336.961212 
	C882.370605,345.119476 877.120483,352.182861 872.370972,359.910248 
	C869.604309,360.033325 869.635620,357.764923 868.888123,356.261932 
	C865.401794,349.251801 860.079285,345.331970 851.975952,345.429138 
	C842.194519,345.546478 832.410034,345.480042 822.627075,345.436798 
	C820.494873,345.427368 818.291870,345.716614 815.917236,344.351746 
	C813.078613,336.779388 810.243042,329.534668 806.337280,322.390594 
	C823.253052,322.037567 840.223450,321.741333 857.179382,322.110107 
	C866.196167,322.306213 874.075195,326.221283 880.785034,332.291992 
	C882.386658,333.741028 883.892456,335.295929 885.743286,336.961212 
z"/>
<path fill="#B257DA" opacity="1.000000" stroke="none" 
	d="
M990.031128,884.454346 
	C990.518860,888.321533 989.116333,890.875366 986.491882,893.053833 
	C981.817322,896.934143 977.269104,900.966736 972.321533,904.968689 
	C968.810181,904.060425 969.327942,901.112305 968.917175,898.901062 
	C966.522034,886.005737 964.289124,873.080322 961.630615,859.805664 
	C960.398315,851.414551 957.955811,843.634705 958.036926,835.101440 
	C961.665649,829.845398 967.276184,828.011841 972.200134,825.231812 
	C974.417297,823.980042 976.346680,822.680969 977.749756,820.123779 
	C979.669495,827.628540 981.427429,835.346436 982.903870,843.117798 
	C985.365723,856.075867 987.652100,869.067322 989.990356,882.048584 
	C990.106140,882.691528 990.012329,883.372192 990.031128,884.454346 
z"/>
<path fill="#9F7300" opacity="1.000000" stroke="none" 
	d="
M588.290771,305.580750 
	C582.818359,305.795380 577.703003,307.514160 572.204468,306.190125 
	C570.655640,299.749939 570.144531,293.423279 566.096375,288.118805 
	C563.149292,284.257080 559.534241,281.098297 556.158142,277.693634 
	C547.449341,268.911255 543.200134,258.329529 543.012512,246.058167 
	C542.890076,238.051483 546.094360,231.075485 550.739868,224.920441 
	C554.949097,219.343369 560.022400,214.451660 566.611084,210.952209 
	C569.075378,213.391693 567.277161,215.475449 566.113647,217.995544 
	C559.605713,232.277405 559.751953,246.488998 564.653931,260.670319 
	C566.414490,265.763336 570.523071,269.504730 574.614258,272.978699 
	C576.517639,274.594910 578.517578,276.097168 580.593018,278.130737 
	C587.815125,286.115112 589.107239,295.437103 588.290771,305.580750 
z"/>
<path fill="#A075D3" opacity="1.000000" stroke="none" 
	d="
M901.769104,530.292236 
	C907.520386,520.548950 913.295288,511.226776 919.408325,501.789459 
	C922.161560,514.238464 924.637756,526.791382 926.969666,539.370911 
	C928.434631,547.273804 929.683105,555.216736 931.065674,563.569946 
	C927.673645,572.645874 921.959534,579.929626 916.955078,587.634583 
	C916.507751,588.323303 915.637024,588.591370 914.390381,588.665649 
	C912.075867,587.998962 911.753784,586.279297 911.439331,584.667480 
	C908.064636,567.369934 904.662292,550.077209 901.705627,532.701355 
	C901.593994,532.045166 901.721130,531.374512 901.769104,530.292236 
z"/>
<path fill="#AD5AE9" opacity="1.000000" stroke="none" 
	d="
M978.020630,819.472046 
	C978.545471,822.826477 976.913818,824.641541 974.512390,825.594604 
	C969.178040,827.711487 964.524658,830.972717 959.333496,833.967651 
	C957.130615,834.061646 956.900146,832.540955 956.644897,831.337158 
	C954.040344,819.050964 951.542297,806.743042 950.022949,794.262878 
	C949.964844,793.785400 950.146667,793.282593 950.122131,792.384399 
	C950.627075,786.463135 948.828125,781.204529 947.763855,775.971680 
	C946.968811,772.062683 949.002502,771.462280 951.345093,770.365295 
	C955.514221,768.413208 959.695801,766.487671 963.877319,764.562195 
	C965.589172,763.773865 967.142761,762.878235 967.014160,760.241272 
	C968.989990,769.251282 971.116333,778.614136 972.857300,788.048096 
	C974.758606,798.350281 976.303101,808.718262 978.020630,819.472046 
z"/>
<path fill="#BE7BFF" opacity="1.000000" stroke="none" 
	d="
M914.768555,588.278931 
	C919.956360,582.154175 923.265869,575.236633 927.536194,568.948730 
	C928.561279,567.439331 929.527893,565.890198 930.811890,564.178711 
	C933.974792,573.184021 935.087830,582.760315 936.681885,592.173157 
	C938.426636,602.475769 940.627563,612.709961 942.016052,623.493835 
	C942.646912,624.641235 942.414062,625.546997 942.688965,626.663696 
	C942.891296,627.381714 942.942383,627.815491 943.014160,628.576172 
	C942.477722,631.775696 939.900269,631.711975 937.980103,631.878479 
	C934.199341,632.206360 930.370850,631.983276 926.562073,631.989319 
	C924.292603,631.992859 922.851990,630.881165 922.118347,628.754639 
	C918.674255,618.772522 916.847961,608.413147 915.061279,598.054199 
	C914.774475,596.391296 914.575073,594.807922 913.246826,593.211182 
	C911.693726,590.887512 913.248474,589.767395 914.768555,588.278931 
z"/>
<path fill="#FFFD78" opacity="1.000000" stroke="none" 
	d="
M564.978516,218.463470 
	C565.806519,215.919342 566.592468,213.766022 567.174194,211.264572 
	C566.970093,210.916443 567.000366,210.977798 566.966248,210.978790 
	C567.221924,210.828598 567.457947,210.617264 567.800171,210.167542 
	C571.128540,201.304703 576.980286,194.555481 584.381287,189.464554 
	C597.171143,180.666794 611.425354,175.870682 627.591675,176.154205 
	C625.288086,179.877411 621.049927,177.920334 617.575134,178.826645 
	C600.166565,183.367371 584.246094,190.302307 576.394470,207.675720 
	C570.716675,220.239182 570.812622,233.607819 576.697876,246.786758 
	C578.457947,251.544022 582.190735,254.539124 585.705261,256.876007 
	C594.597534,262.788818 597.987854,271.201141 598.990967,281.580475 
	C599.322998,285.869904 599.473694,289.770172 600.014343,293.615601 
	C600.634705,298.027679 598.797729,299.626038 594.147461,299.119781 
	C591.110229,298.002655 591.675476,295.576843 591.644470,293.549835 
	C591.565063,288.369293 590.826050,283.310547 589.312500,277.943665 
	C588.341003,271.239349 584.304504,267.080383 579.350586,263.830933 
	C568.589111,256.771942 564.909668,246.062485 563.845398,234.111938 
	C563.394226,229.046036 562.991760,223.822952 564.978516,218.463470 
z"/>
<path fill="#BA76F4" opacity="1.000000" stroke="none" 
	d="
M952.918274,682.586121 
	C950.706787,681.830322 948.450623,680.722534 951.780090,678.015869 
	C953.620117,679.130676 952.805847,680.765015 952.918274,682.586121 
z"/>
<path fill="#B879FA" opacity="1.000000" stroke="none" 
	d="
M942.897095,626.610107 
	C942.012451,626.351501 941.996643,625.470581 942.020264,624.244690 
	C943.050720,624.418884 942.972412,625.357300 942.897095,626.610107 
z"/>
<path fill="#BA76F4" opacity="1.000000" stroke="none" 
	d="
M951.918823,675.615601 
	C951.016357,675.356995 950.996399,674.464233 951.030884,673.217468 
	C952.064880,673.401062 951.991089,674.348267 951.918823,675.615601 
z"/>
<path fill="#65389B" opacity="1.000000" stroke="none" 
	d="
M996.332947,982.943054 
	C996.254333,982.459351 996.479858,981.844238 997.034424,981.105591 
	C997.121399,981.591858 996.879272,982.201782 996.332947,982.943054 
z"/>
<path fill="#65389B" opacity="1.000000" stroke="none" 
	d="
M995.333618,984.946838 
	C995.177917,984.458740 995.316528,983.847656 995.765381,983.117432 
	C995.926392,983.606812 995.777222,984.215332 995.333618,984.946838 
z"/>
<path fill="#137A7A" opacity="1.000000" stroke="none" 
	d="
M992.336548,369.955200 
	C992.211975,369.455566 992.388306,368.834503 992.890137,368.107391 
	C993.022949,368.612183 992.830139,369.222992 992.336548,369.955200 
z"/>
<path fill="#9F7300" opacity="1.000000" stroke="none" 
	d="
M567.697205,210.035065 
	C567.825745,210.390671 567.691284,210.792068 567.244507,211.086639 
	C567.099487,210.680161 567.266846,210.380524 567.697205,210.035065 
z"/>
<path fill="#A660FE" opacity="1.000000" stroke="none" 
	d="
M410.319641,945.291748 
	C408.634949,928.340393 407.351196,911.694336 405.267639,895.114807 
	C403.601898,881.860046 402.534698,868.530884 400.977936,855.261047 
	C400.495697,851.150269 399.829102,847.077515 399.909241,842.470947 
	C398.783936,830.848083 397.783081,819.671387 396.613495,808.512451 
	C395.512878,798.011719 394.205444,787.532837 393.044891,777.038208 
	C392.337494,770.641174 391.735809,764.232544 391.121826,757.403931 
	C396.633209,754.552673 399.200714,755.010559 402.631348,759.369019 
	C403.919739,761.005859 405.539246,761.447510 407.388580,761.593506 
	C409.949768,761.795593 412.260681,762.552246 414.374573,764.777283 
	C417.373962,774.492676 417.172729,784.243469 418.277710,793.809631 
	C420.627716,814.153870 422.795319,834.523071 424.716858,854.915405 
	C426.825531,877.294067 429.183502,899.648682 431.530487,922.002197 
	C433.825897,943.864685 435.639587,965.779846 438.429779,987.588257 
	C439.807800,998.358826 445.737579,1003.592346 456.511871,1003.474854 
	C473.823425,1003.286072 491.078491,1001.854248 508.347565,1000.764648 
	C509.847534,1000.669983 511.338257,1000.543884 513.238403,1000.854858 
	C516.894775,1002.420044 515.435059,1004.415649 513.987549,1006.035645 
	C510.795776,1009.608215 507.539001,1013.174561 503.751434,1016.109985 
	C500.465973,1018.656372 497.797638,1021.837524 494.274170,1024.649170 
	C480.648102,1025.642212 467.299835,1026.382812 453.492004,1027.188232 
	C430.065308,1024.832886 416.761017,1010.588806 414.875275,987.020569 
	C413.768646,973.189697 412.025177,959.409790 410.319641,945.291748 
z"/>
<path fill="#A85DF6" opacity="1.000000" stroke="none" 
	d="
M494.448853,1024.941772 
	C495.332153,1020.866150 498.819885,1018.701111 501.788605,1016.148621 
	C506.566406,1012.040833 511.269440,1007.890320 514.965393,1002.360657 
	C515.947998,1000.925964 517.253540,1000.643982 518.582153,1000.586792 
	C536.066467,999.832825 553.482849,997.933472 571.451782,997.510498 
	C593.041382,995.873657 614.219116,995.103516 635.363953,993.798462 
	C644.751404,993.218994 654.165222,991.786926 664.047974,992.784058 
	C668.649353,995.348633 665.853333,997.488708 663.998718,999.407166 
	C658.483154,1005.112610 652.163208,1009.959595 646.296204,1015.847900 
	C638.604309,1017.918457 630.948730,1017.145508 623.397461,1017.782959 
	C607.886047,1019.092407 592.283569,1019.279724 576.732910,1020.177612 
	C551.110779,1021.657043 525.500305,1023.338562 499.883759,1024.916504 
	C498.227875,1025.018433 496.562378,1024.963745 494.448853,1024.941772 
z"/>
<path fill="#AD5AE9" opacity="1.000000" stroke="none" 
	d="
M646.523193,1016.143616 
	C646.974304,1011.855652 650.596252,1009.700378 653.613037,1007.347961 
	C657.686584,1004.171326 660.846985,1000.081299 664.901489,996.926208 
	C665.473816,996.480896 665.598389,995.460205 665.965088,994.352905 
	C667.473816,992.096619 669.638611,991.675903 671.794006,991.627991 
	C685.558044,991.321960 699.250183,989.662720 713.483643,989.514648 
	C735.462219,987.510132 757.096680,987.462341 778.622742,985.617310 
	C781.608154,985.361450 784.607605,985.356262 788.009644,985.777832 
	C792.478149,987.748230 790.101440,989.983887 788.438965,991.610046 
	C784.533325,995.430481 780.355652,998.974670 776.296326,1002.636963 
	C773.953552,1004.750610 771.693848,1006.908752 769.282349,1009.469971 
	C728.321411,1011.851624 687.653687,1013.995667 646.523193,1016.143616 
z"/>
<path fill="#B257DA" opacity="1.000000" stroke="none" 
	d="
M769.402222,1009.754272 
	C771.802612,1002.467041 779.017639,999.412415 783.916870,994.149536 
	C785.915771,992.002319 788.638550,990.526367 789.965698,987.349915 
	C791.917236,985.094238 794.500732,984.738586 796.899475,984.753967 
	C805.005981,984.805847 813.016418,983.234924 821.589355,983.526794 
	C842.503174,981.927002 863.023804,981.490540 883.462463,979.734314 
	C885.127319,979.591370 886.775635,979.556213 888.656738,980.698547 
	C885.869202,985.226624 881.950623,988.644165 877.980713,992.013794 
	C873.978271,995.411011 869.971375,998.808105 867.034790,1003.614807 
	C847.996704,1005.334717 828.978638,1006.375793 809.941528,1007.177795 
	C796.553040,1007.741821 783.189819,1008.905273 769.402222,1009.754272 
z"/>
<path fill="#AF71FF" opacity="1.000000" stroke="none" 
	d="
M414.266571,764.731323 
	C411.128082,763.756165 408.302399,762.521851 404.995392,762.887024 
	C403.984497,762.998657 402.016876,762.272766 401.927124,761.703552 
	C400.895294,755.155884 395.897675,757.317261 391.597107,756.985535 
	C388.840210,735.237915 386.482605,713.501465 384.221252,691.754883 
	C382.746216,677.570312 381.462494,663.365784 379.998871,649.179932 
	C378.485077,634.507324 376.785767,619.853638 375.306000,605.177734 
	C374.390686,596.100098 373.733551,586.996399 372.984070,577.450989 
	C375.170197,577.001953 377.334198,576.958374 379.494934,577.022522 
	C382.380676,577.108032 384.800751,578.946899 384.721802,581.398621 
	C384.558258,586.474915 388.341064,587.417114 391.048157,586.605408 
	C393.974670,585.727905 394.818634,582.123962 394.417664,578.526611 
	C393.393402,569.337891 392.776764,560.103760 392.000183,550.442627 
	C401.993134,543.614929 409.830322,534.723877 418.749542,527.094055 
	C420.956726,525.205933 422.889099,521.868042 426.851990,524.852173 
	C429.818939,538.295471 430.147400,551.645447 431.439148,564.880188 
	C433.410217,585.074646 435.256226,605.282776 437.069580,625.492249 
	C439.091095,648.021484 441.415619,670.524658 442.987030,693.504028 
	C438.151672,699.901855 431.843658,704.260071 426.339386,709.466797 
	C422.977509,712.646912 419.503662,715.746155 416.177490,718.967590 
	C413.265564,721.787842 412.177490,724.997986 412.752899,729.604614 
	C413.764435,737.702332 414.127991,745.953613 414.208893,754.154053 
	C414.242889,757.596985 415.936462,760.987976 414.266571,764.731323 
z"/>
<path fill="#FFC93F" opacity="1.000000" stroke="none" 
	d="
M815.518188,352.006042 
	C816.362061,356.291077 817.288086,360.503967 817.060791,364.866760 
	C816.906311,367.832275 815.767517,369.028046 812.818481,369.021393 
	C801.697388,368.996399 790.581909,369.565369 779.476440,369.790955 
	C763.368469,370.118195 747.255615,370.778778 731.169495,371.325531 
	C719.216919,371.731781 707.254395,371.352631 695.326477,372.050720 
	C675.276917,373.224152 655.201355,373.455902 635.141479,374.165405 
	C614.911499,374.880951 594.683105,375.528137 574.451172,376.163330 
	C555.886902,376.746124 537.311401,377.376282 518.765015,378.266113 
	C509.803284,378.696106 500.830505,378.355194 491.911713,379.082947 
	C483.294006,379.786224 474.687805,379.978333 466.056549,380.066864 
	C462.741608,380.100861 461.517456,379.481537 460.685913,375.685944 
	C459.058105,368.255890 461.172913,361.151703 461.016998,353.461243 
	C463.577362,352.213013 466.177490,351.968781 468.867859,351.969604 
	C584.262268,352.005737 699.656677,352.001587 815.518188,352.006042 
z"/>
<path fill="#B679FE" opacity="1.000000" stroke="none" 
	d="
M815.572449,344.575684 
	C828.506653,344.131012 841.505188,343.939575 854.501282,344.046631 
	C862.663452,344.113892 868.920532,350.063690 871.817749,359.880920 
	C863.918884,373.589966 855.734131,387.061554 847.276672,400.724457 
	C844.732422,399.999084 844.788452,397.837463 844.389465,395.949249 
	C843.024841,389.490723 841.981384,382.971893 840.939941,376.457397 
	C840.370483,372.895782 838.589478,371.442169 834.957520,371.383240 
	C830.215088,371.306274 825.391235,372.235687 820.385010,370.358093 
	C818.888855,363.205170 817.736023,356.303436 816.348633,349.078094 
	C815.954590,347.488037 815.795166,346.221588 815.572449,344.575684 
z"/>
<path fill="#A765FF" opacity="1.000000" stroke="none" 
	d="
M426.303894,523.663574 
	C423.927399,524.214783 422.323517,525.286377 420.829071,526.658691 
	C413.080078,533.774536 405.277252,540.831970 397.563538,547.985718 
	C396.149078,549.297485 394.752106,550.240662 392.385376,549.997986 
	C392.001465,549.248169 391.999695,548.498840 391.995911,547.374756 
	C392.604095,545.410461 392.775482,543.869995 391.247559,542.243713 
	C389.733856,530.029846 388.437195,518.067139 387.201141,506.098267 
	C386.421295,498.546448 385.791412,490.978973 384.988586,483.429718 
	C383.768311,471.955139 382.421722,460.494019 381.195526,449.020050 
	C380.406464,441.636841 379.736969,434.240814 379.018677,426.423462 
	C385.880371,423.556030 390.107697,417.668579 395.344788,413.187378 
	C399.877716,409.308746 404.505829,405.470276 408.718079,401.191681 
	C410.448639,399.433899 412.434357,397.707642 415.628906,398.991882 
	C417.719055,401.448883 417.292267,404.105438 417.445618,407.084900 
	C417.552582,418.314392 419.173126,428.974854 420.055359,439.696198 
	C420.748199,448.116180 421.594391,456.520477 422.329620,464.934692 
	C423.497559,478.301117 424.869110,491.648346 426.010132,505.015656 
	C426.528900,511.093353 427.380280,517.186584 426.303894,523.663574 
z"/>
<path fill="#A660FE" opacity="1.000000" stroke="none" 
	d="
M415.369812,398.676544 
	C408.302063,400.743683 404.998444,407.088196 399.772552,410.954987 
	C394.514008,414.845825 389.970917,419.724823 385.252747,424.313171 
	C383.622925,425.898132 381.828552,426.091248 379.419525,425.997742 
	C377.783661,414.160065 376.311493,402.342010 375.379700,390.481537 
	C374.672424,381.479004 372.241364,372.468811 374.019897,363.427124 
	C375.740814,354.678284 381.966156,350.589600 390.652954,349.858948 
	C408.780457,348.334351 426.911469,349.386383 445.034637,349.019226 
	C446.839905,348.982635 448.652039,349.282806 450.753845,349.731262 
	C450.657227,351.673767 450.267761,353.311707 449.864075,355.315002 
	C448.500366,360.839050 448.229401,366.266418 445.791138,371.528259 
	C440.084259,375.911774 435.077911,380.548676 429.897278,385.535889 
	C426.233582,386.587982 422.757294,386.566376 419.374573,387.220551 
	C417.552979,387.572815 415.690308,387.655487 415.434937,390.451782 
	C415.340332,392.310211 415.233978,393.805511 415.762878,395.647949 
	C415.945984,396.823273 415.887573,397.600952 415.369812,398.676544 
z"/>
<path fill="#AF71FF" opacity="1.000000" stroke="none" 
	d="
M391.001373,542.382935 
	C394.060333,542.760315 395.195190,544.190186 392.344421,546.939087 
	C390.506042,545.862488 391.146851,544.223633 391.001373,542.382935 
z"/>
<path fill="#C57A03" opacity="1.000000" stroke="none" 
	d="
M589.763123,276.417603 
	C592.860229,283.665405 592.780945,291.100433 593.483398,298.814758 
	C593.871704,306.697968 593.871704,306.697968 588.285889,306.105560 
	C587.033752,296.668488 587.093201,287.153381 580.159302,279.342682 
	C581.918091,274.090759 585.789734,275.674927 589.763123,276.417603 
z"/>
<path fill="#FFFFFF" opacity="1.000000" stroke="none" 
	d="
M414.255249,391.156830 
	C413.501495,387.156036 414.622925,385.461090 418.760620,385.773407 
	C422.174774,386.031067 425.659363,385.355713 429.555969,385.026001 
	C434.313568,382.514099 438.819061,383.308929 443.739563,384.427063 
	C445.647217,386.580200 445.473450,388.778137 445.065826,390.907043 
	C444.199310,395.432404 445.031067,399.858521 445.484222,404.332031 
	C445.781738,407.268768 447.287109,408.294678 450.042999,408.425354 
	C455.068817,408.663635 460.031708,407.513397 464.991364,407.608215 
	C479.001221,407.876038 492.962860,406.783234 506.933411,406.292664 
	C530.549683,405.463409 554.190308,405.164551 577.783447,403.616882 
	C587.913452,402.952362 598.091125,403.006134 608.230225,402.740479 
	C623.041016,402.352417 637.865112,401.811523 652.658264,401.242859 
	C675.771729,400.354340 698.915039,400.162750 722.007751,398.616486 
	C732.633667,397.905029 743.314514,397.981445 753.954041,397.717804 
	C769.598999,397.330078 785.220581,396.098480 800.894470,396.364807 
	C813.697266,396.582428 813.703247,396.297485 817.843323,383.977386 
	C818.215332,382.870361 818.565125,381.756256 819.585388,380.446564 
	C819.921204,377.057159 819.953186,374.028046 820.013428,370.552917 
	C825.531555,370.024109 831.036316,370.157928 836.505981,369.781494 
	C840.075256,369.535797 841.523987,370.693146 842.070923,374.263733 
	C843.400452,382.943695 845.128601,391.562592 846.850098,400.560913 
	C834.081055,422.034821 821.156799,443.152954 808.237976,464.274506 
	C807.197754,465.975128 806.195740,467.699097 805.109131,469.757874 
	C801.984009,478.278229 796.530212,485.074829 792.110962,492.461243 
	C784.857788,504.584564 777.141174,516.427185 769.862732,528.959229 
	C757.602112,548.264832 745.999695,567.553955 733.963745,586.999451 
	C726.577942,599.023254 719.324158,610.704041 712.145935,622.431519 
	C711.114136,624.117188 710.111023,625.859680 708.211304,627.324036 
	C705.385925,627.985229 704.369446,626.031616 703.100281,624.557190 
	C685.742859,604.390686 668.443054,584.175476 651.263855,563.856323 
	C642.997437,554.078979 634.522217,544.477783 626.297302,534.663391 
	C623.332886,531.126038 619.504395,529.300598 614.934570,529.314087 
	C608.457886,529.333069 601.973999,528.841003 595.508240,529.981689 
	C592.250854,530.556335 588.877502,530.557373 585.213623,529.599304 
	C583.376160,528.562927 582.367126,527.215393 581.277405,525.963928 
	C578.022034,522.225342 574.030396,520.282959 568.980591,520.442627 
	C551.856323,520.984009 534.718018,521.121033 517.616821,522.305420 
	C513.457275,522.593567 509.279938,522.610352 505.128418,522.410645 
	C495.940704,521.968567 486.846313,523.319214 477.698456,523.629761 
	C469.813568,523.897522 465.976105,528.580444 464.522186,538.872070 
	C463.436798,553.705688 461.374451,568.019775 459.707520,582.374023 
	C459.033813,588.175354 459.851257,593.022339 463.738647,597.646118 
	C472.830872,608.460693 481.976044,619.236389 491.065979,630.540588 
	C507.733765,650.993774 524.494141,670.884644 541.381104,691.129395 
	C556.665466,709.738342 572.000671,727.845642 587.372559,746.382690 
	C599.986816,762.033203 612.831970,777.032410 625.447266,792.222229 
	C627.036621,794.135925 628.421814,796.223999 630.468994,798.215576 
	C644.557312,815.257141 658.456909,831.997620 672.232788,848.840210 
	C673.807007,850.764893 675.421204,852.686584 677.350891,854.280701 
	C683.862427,859.659363 691.370789,858.630554 696.380737,851.819946 
	C698.626221,848.767456 700.031250,845.066956 703.623230,842.724854 
	C710.252136,847.052185 713.864502,853.822754 718.940369,859.272339 
	C720.642456,861.099731 722.104065,863.156189 724.243225,864.519653 
	C730.667419,868.614380 737.796814,866.688782 742.599976,859.306580 
	C748.959290,849.532532 755.111145,839.623352 761.323914,829.755188 
	C780.584473,799.162170 799.918701,768.615601 819.259888,738.073792 
	C840.739624,704.154968 862.073608,670.143860 883.680420,636.305542 
	C884.651611,634.784668 885.365051,633.014404 887.440674,632.138733 
	C892.522156,657.757568 897.250000,683.313477 901.966064,708.871521 
	C903.107483,715.057617 904.210083,721.250916 905.551758,727.745605 
	C907.429688,742.834290 910.932495,757.296265 913.452026,771.930115 
	C915.952759,786.454102 918.709290,800.933960 921.576721,815.751953 
	C923.508423,817.473877 923.694641,819.537109 924.017517,821.478882 
	C927.345642,841.496033 931.462219,861.369446 934.998047,881.793823 
	C936.368286,890.274536 937.953491,898.270935 939.430908,906.287231 
	C940.461609,911.880066 939.645874,912.938721 933.980164,913.979004 
	C930.187134,914.675354 926.354553,914.467041 922.073486,914.437378 
	C898.931458,915.878906 876.229492,917.035583 853.535095,918.279907 
	C838.626038,919.097412 823.725464,920.243225 808.330566,920.574341 
	C807.571533,920.575623 807.270142,920.566040 806.520874,920.567383 
	C797.656128,921.930054 789.116638,921.092590 780.253540,921.902466 
	C779.175476,921.936340 778.908936,920.232788 777.662842,921.649902 
	C769.560608,924.531799 761.545349,923.070190 753.212891,923.494080 
	C752.472046,923.500549 752.175415,923.494202 751.432861,923.490234 
	C750.389771,923.484558 749.793152,923.462769 748.746216,923.441406 
	C729.879333,924.943909 711.406189,925.457336 692.976257,926.624939 
	C673.381531,927.866272 653.755127,928.559326 634.178467,930.187927 
	C626.234558,930.848816 618.233276,931.225220 610.250305,931.478882 
	C593.943726,931.996948 577.692993,933.484497 561.404114,934.195984 
	C547.267273,934.813477 533.148071,935.649048 519.026367,936.496704 
	C508.064941,937.154785 497.072235,937.258179 486.132385,938.306274 
	C478.351624,939.051697 476.749847,937.917480 475.838867,929.987549 
	C471.712921,894.073364 467.502777,858.168823 463.355530,822.257141 
	C461.042969,802.232300 458.785675,782.199463 456.317535,762.193237 
	C451.445068,722.697937 447.256775,683.124023 442.547241,643.610046 
	C437.204651,598.784363 432.075958,553.933228 426.861267,509.092407 
	C424.673340,490.278809 422.810669,471.424103 420.860382,452.582214 
	C419.529755,439.727295 418.575287,426.816895 416.586975,414.027679 
	C416.255676,411.896912 416.607727,409.699646 416.230286,407.134033 
	C416.091522,404.366669 416.184570,402.000427 415.294281,399.348694 
	C415.105865,398.232544 415.076508,397.467712 414.963379,396.328491 
	C414.159698,394.523682 414.726929,392.964050 414.255249,391.156830 
z"/>
<path fill="#13B878" opacity="1.000000" stroke="none" 
	d="
M822.166870,471.400970 
	C831.672791,454.904297 841.303833,438.774048 851.156189,422.780151 
	C869.991638,392.203369 889.002136,361.734314 907.774780,331.119263 
	C909.387573,328.489044 910.428894,328.267853 913.138000,329.411987 
	C934.573425,338.464905 956.072144,347.369446 977.609314,356.178070 
	C980.456177,357.342468 980.987915,358.102478 979.171509,360.943237 
	C965.199158,382.795593 951.461426,404.797791 937.582275,426.709961 
	C928.689331,440.750092 919.679993,454.716553 910.439087,468.894592 
	C908.774048,470.125336 907.173706,470.582550 905.483154,470.502991 
	C895.841980,470.049286 886.287842,471.562836 876.656555,471.669922 
	C860.747986,471.846832 844.834167,472.313843 828.947510,473.338562 
	C826.622498,473.488556 824.267517,473.674286 822.166870,471.400970 
z"/>
<path fill="#1BC56C" opacity="1.000000" stroke="none" 
	d="
M821.704956,471.134705 
	C824.059387,472.302673 826.522156,472.424530 828.714966,471.891876 
	C834.809387,470.411591 840.951233,471.176971 847.068237,471.017578 
	C860.331726,470.671906 873.592712,470.119720 886.851746,469.734100 
	C894.277588,469.518127 901.736938,469.193695 909.670410,469.047302 
	C908.277954,474.265564 904.343018,478.274750 901.967529,483.560425 
	C900.921082,487.700012 898.503662,490.738678 896.467041,493.950012 
	C888.888245,505.899902 881.281738,517.831787 873.813110,529.851379 
	C872.251343,532.364929 870.923645,535.224731 867.033936,535.733887 
	C862.509644,536.384583 858.376709,536.539795 854.222778,536.548828 
	C833.180481,536.594482 812.186279,538.210938 791.151733,538.516357 
	C788.512939,538.554688 785.830444,538.754456 782.922668,537.454346 
	C779.857361,534.256042 782.817139,532.157898 783.883057,529.397705 
	C795.346313,511.905914 805.630188,494.136841 816.627502,476.812408 
	C817.418152,475.566833 817.975586,474.131409 819.668030,473.172913 
	C820.487000,472.443359 820.977600,471.869904 821.704956,471.134705 
z"/>
<path fill="#56D679" opacity="1.000000" stroke="none" 
	d="
M867.759521,535.373901 
	C870.670471,533.398193 871.860779,530.601807 873.446655,528.110413 
	C882.747803,513.498352 892.040283,498.880859 901.623047,484.086273 
	C902.904419,485.907379 904.313538,485.962341 906.398499,485.457031 
	C909.719727,484.652100 913.177917,484.580566 916.840820,485.857758 
	C909.369568,498.672333 901.638611,511.180145 893.848328,523.650818 
	C889.467163,530.664246 884.987854,537.616272 880.283325,544.795532 
	C875.167358,546.224976 870.310181,545.335754 865.056763,544.923462 
	C862.503296,543.299744 863.647217,541.640381 864.488403,540.098328 
	C865.343689,538.530457 866.239807,536.969666 867.759521,535.373901 
z"/>
<path fill="#56D679" opacity="1.000000" stroke="none" 
	d="
M819.616943,472.847900 
	C808.928406,491.814240 797.517273,510.400299 785.392822,528.902710 
	C779.991455,531.532104 774.772095,530.949097 769.164795,529.276611 
	C777.557312,514.509033 786.298889,500.080719 795.073730,485.672699 
	C798.173096,480.583618 801.353882,475.544159 804.769897,470.292816 
	C806.120483,472.369324 808.202332,471.898651 810.113037,472.026367 
	C813.155212,472.229736 816.276001,471.372742 819.616943,472.847900 
z"/>
<path fill="#C57A03" opacity="1.000000" stroke="none" 
	d="
M819.436951,380.104492 
	C819.610779,385.473053 816.994385,390.262665 815.965515,395.455841 
	C815.526428,397.672424 813.783630,397.103271 812.401917,397.151886 
	C792.782532,397.842255 773.162354,398.510773 753.541809,399.166046 
	C723.292542,400.176300 693.042236,401.154449 662.793518,402.179871 
	C635.700500,403.098267 608.607666,404.023224 581.517212,405.014679 
	C538.463562,406.590454 495.410919,408.194000 452.360718,409.859833 
	C444.354675,410.169647 444.556244,410.310394 443.721466,402.237732 
	C443.150848,396.719330 443.842010,391.273651 443.810425,385.355591 
	C441.541229,380.714417 442.856750,376.709290 444.727844,372.360382 
	C446.433289,366.731293 447.861053,361.461334 449.569366,355.935852 
	C448.970276,366.620361 448.672699,377.568237 448.803253,388.550201 
	C448.852692,392.707947 450.620392,393.293884 453.961731,392.805878 
	C456.086639,392.495514 458.231110,392.203461 460.373352,392.146149 
	C477.159546,391.697052 493.960419,391.591980 510.731232,390.823883 
	C530.316895,389.926880 549.913574,389.514771 569.500061,388.792847 
	C589.256042,388.064697 609.016663,387.516785 628.769714,386.790009 
	C648.359314,386.069336 667.953857,385.533936 687.540161,384.802856 
	C707.296021,384.065460 727.057373,383.536407 746.809753,382.795776 
	C766.399292,382.061218 785.981750,381.222656 805.583862,380.876068 
	C810.053894,380.796997 814.517944,380.382721 819.436951,380.104492 
z"/>
<path fill="#D4D4D4" opacity="1.000000" stroke="none" 
	d="
M887.864258,631.891235 
	C860.232361,675.724426 832.646973,719.235901 805.106140,762.775635 
	C784.934387,794.665466 764.780396,826.566711 744.702942,858.515991 
	C737.029114,870.727478 726.609253,871.101196 717.648193,859.496826 
	C713.389893,853.982300 708.696960,848.803406 704.074585,843.151123 
	C702.735901,840.745422 704.361267,839.356201 705.286072,837.909058 
	C714.068115,824.167786 722.564270,810.244873 731.490295,796.596252 
	C733.159729,794.043518 734.014160,791.179565 735.431274,788.147034 
	C737.346191,786.511658 738.880676,785.067017 740.050049,783.165710 
	C753.829956,760.760132 768.311768,738.793945 782.118408,715.978638 
	C795.397644,695.063049 809.144165,674.866028 821.168213,653.590393 
	C823.460022,649.535156 825.928589,645.592712 829.049072,641.647888 
	C838.365417,627.903381 846.652893,613.929382 855.511963,600.320801 
	C861.208679,591.570068 866.509949,582.568237 872.303467,573.880432 
	C873.379395,572.266907 874.180603,570.300110 876.741882,569.900085 
	C878.711060,571.724731 878.909668,573.923767 879.287659,576.039429 
	C882.096558,591.762024 884.964661,607.473999 887.810486,623.189880 
	C888.229736,625.505371 888.435303,627.792542 888.096069,630.540771 
	C888.002319,631.165710 887.966064,631.373596 887.864258,631.891235 
z"/>
<path fill="#9766D3" opacity="1.000000" stroke="none" 
	d="
M888.307495,630.767700 
	C885.696899,618.619263 883.341248,606.283386 881.018799,593.941223 
	C879.550781,586.139465 878.132324,578.328369 876.462402,570.218689 
	C875.453491,567.690674 877.074646,566.512451 878.633911,565.034302 
	C886.384277,553.364624 893.806213,541.824707 901.486816,530.077942 
	C904.686401,535.720459 904.581543,542.271667 905.897888,548.483276 
	C908.599854,561.232239 910.788330,574.089783 913.236267,586.893494 
	C913.308105,587.268982 913.920288,587.541199 914.659424,587.939331 
	C914.375244,589.447571 913.712158,590.878052 912.995728,592.648560 
	C907.538147,599.627136 903.699829,607.296875 898.901611,614.338501 
	C895.291382,619.636719 892.006348,625.156555 888.307495,630.767700 
z"/>
<path fill="#C57A03" opacity="1.000000" stroke="none" 
	d="
M649.276123,242.993423 
	C636.462463,250.989487 623.603149,251.117386 610.193848,244.632660 
	C608.889038,243.657394 607.894409,242.775436 606.864563,241.936752 
	C597.426575,234.251068 596.191467,223.189285 603.693665,213.463837 
	C614.665466,199.240616 642.921936,199.337799 653.783020,213.636154 
	C660.973755,223.102570 659.459900,233.472641 649.276123,242.993423 
z"/>
<path fill="#BE72E9" opacity="1.000000" stroke="none" 
	d="
M934.134888,882.262573 
	C931.242126,868.447327 928.601257,854.847351 926.072510,841.226501 
	C924.571289,833.140564 923.246582,825.021912 921.821167,816.494324 
	C923.971375,816.000793 925.565735,814.545837 926.968872,813.304688 
	C934.650757,806.509644 942.154236,799.512878 949.869202,792.280701 
	C953.183594,798.990601 952.801880,806.764587 954.741394,814.067749 
	C956.427490,820.416260 957.228027,826.999939 958.700623,833.741394 
	C959.194885,842.244995 961.490601,850.149902 962.940796,858.598877 
	C955.265808,866.966919 946.672180,873.983521 938.520020,881.479797 
	C937.395569,882.513794 936.046936,883.181274 934.134888,882.262573 
z"/>
<path fill="#C16FDE" opacity="1.000000" stroke="none" 
	d="
M933.847534,882.486206 
	C939.955994,880.861633 943.046753,875.484131 947.356750,871.907532 
	C952.398132,867.724060 956.970703,862.955078 962.640259,859.033997 
	C965.794312,874.157104 968.604431,889.315063 971.694763,904.737427 
	C972.321838,908.710510 972.668640,912.419128 973.021118,916.562134 
	C966.356445,924.881165 958.211121,931.222290 950.646423,938.155701 
	C941.965149,946.112488 933.197083,953.982788 924.408569,961.826355 
	C917.973511,967.569641 911.424683,973.204163 905.240234,979.736755 
	C899.965271,980.208374 895.005432,981.537231 889.461426,981.013184 
	C874.712891,981.995667 860.434937,983.234070 846.130127,983.842957 
	C838.382874,984.172729 830.631165,984.346313 822.449707,984.988770 
	C820.589172,982.297729 822.792480,980.935547 824.267212,979.647217 
	C836.118591,969.294128 847.572021,958.500000 859.376770,948.093872 
	C864.831604,943.285278 870.226868,938.380493 875.802002,933.137329 
	C889.550354,931.483093 902.999023,931.069763 916.438538,930.567322 
	C923.026550,930.320984 923.283264,930.107056 922.338196,923.671753 
	C921.859863,920.414673 920.628479,917.207214 921.723877,913.480347 
	C926.559265,912.702820 931.176392,912.940735 935.780029,912.253906 
	C938.472778,911.852295 938.924927,911.223511 938.392212,908.565125 
	C936.686829,900.054504 935.342773,891.471436 933.847534,882.486206 
z"/>
<path fill="#C56BD5" opacity="1.000000" stroke="none" 
	d="
M905.465759,979.997925 
	C904.937622,978.434631 905.382568,977.271667 906.669556,976.116211 
	C919.843506,964.288696 932.897339,952.327576 946.048706,940.474731 
	C954.762146,932.621704 963.579590,924.883911 972.688599,917.045471 
	C976.052063,924.556519 976.222595,932.717407 977.951782,940.552185 
	C979.015869,945.373291 979.568665,950.305969 980.584229,955.139526 
	C982.783997,965.610107 975.516296,976.191345 964.840210,976.895508 
	C945.221069,978.189575 925.569519,978.993347 905.465759,979.997925 
z"/>
<path fill="#0E9166" opacity="1.000000" stroke="none" 
	d="
M878.778198,564.583252 
	C878.104309,566.377258 877.246277,567.849976 876.310669,569.619324 
	C861.031433,593.852600 845.829651,617.789246 830.350220,641.921326 
	C827.167419,642.317566 824.229431,642.820312 821.239014,640.928101 
	C819.525085,638.341614 820.962158,636.515686 822.086609,634.717102 
	C829.925049,622.179749 837.883789,609.717957 845.905334,596.864319 
	C852.821777,586.021790 859.408081,575.402161 866.177246,564.898499 
	C866.986145,563.643433 867.636780,562.242249 869.616211,561.894287 
	C872.496033,564.057861 876.203369,561.671509 878.778198,564.583252 
z"/>
<path fill="#4BD969" opacity="1.000000" stroke="none" 
	d="
M870.101013,561.660522 
	C862.959412,571.044128 857.693420,581.246704 851.245117,590.678528 
	C849.935608,592.593872 848.794617,594.624390 847.308777,596.807068 
	C842.050720,597.267395 836.993469,599.402649 831.871460,596.175964 
	C830.603027,593.527954 831.829346,591.664795 832.993774,589.853943 
	C842.150269,575.613647 850.921631,561.130005 860.134949,546.925781 
	C860.944824,545.677185 861.602722,544.289062 863.574219,543.918701 
	C869.015259,544.374512 874.186829,543.133911 879.597717,544.945557 
	C876.753418,550.443726 873.492859,555.892273 870.101013,561.660522 
z"/>
<path fill="#FFC93F" opacity="1.000000" stroke="none" 
	d="
M590.174927,276.265076 
	C587.012207,277.617889 583.356628,275.959717 580.236694,278.719360 
	C577.727905,277.142212 575.466736,275.212372 573.138916,273.366425 
	C565.134888,267.019196 561.177673,258.480133 560.367310,248.558975 
	C559.528259,238.288605 559.729553,228.037109 564.730164,218.266602 
	C565.483826,224.429657 564.644287,230.775330 565.401978,237.178726 
	C566.848022,249.399628 572.836853,258.382416 583.010559,265.006042 
	C586.857666,267.510712 589.536682,271.124298 590.174927,276.265076 
z"/>
<path fill="#B679FE" opacity="1.000000" stroke="none" 
	d="
M413.996124,765.443726 
	C413.411194,759.106262 412.098785,753.163208 412.455353,747.322021 
	C412.780304,741.998352 410.782227,736.878235 411.882812,731.610352 
	C412.047729,730.820984 412.224091,729.673157 411.811249,729.180420 
	C408.111298,724.764099 412.059509,720.833252 414.124359,719.007996 
	C423.146118,711.032959 431.276520,702.013245 441.554932,695.046753 
	C444.198975,697.595764 444.020020,700.934998 444.270447,703.988098 
	C446.800995,734.838501 449.915527,765.635498 452.685852,796.463562 
	C455.470978,827.456177 458.329437,858.443665 461.210022,889.428406 
	C462.997162,908.651550 464.907806,927.864502 466.509827,947.104797 
	C466.985565,952.818542 467.815369,953.851013 473.584564,953.371216 
	C495.304169,951.564941 517.092163,950.972168 538.842163,949.769470 
	C555.274597,948.860718 571.724487,947.963745 588.182312,947.340271 
	C599.636414,946.906311 611.104370,946.425781 622.960327,945.774597 
	C627.023438,947.408569 625.504578,949.482056 623.651855,951.118713 
	C616.182800,957.716309 608.802368,964.415161 601.511902,971.202576 
	C591.802856,980.241760 581.191772,988.326843 572.254395,998.718811 
	C553.311462,999.989868 534.621460,1000.997559 515.465698,1002.011108 
	C499.639801,1002.997253 484.284882,1004.073914 468.916748,1004.907959 
	C463.105927,1005.223450 457.253357,1005.210205 451.440521,1004.924866 
	C445.420654,1004.629456 438.022736,997.338257 437.168213,990.697327 
	C435.882111,980.702759 435.144745,970.638855 433.969849,960.628418 
	C432.603027,948.982422 431.948364,937.268738 430.212280,925.651367 
	C429.041351,917.815796 428.781677,909.847534 427.983856,901.951843 
	C426.771881,889.957397 425.394592,877.979675 424.184906,865.985046 
	C423.056946,854.800781 422.143158,843.594604 420.974213,832.414917 
	C419.858185,821.741455 418.481262,811.095398 417.320160,800.426331 
	C416.461884,792.540161 415.760529,784.636902 415.000214,776.740112 
	C414.651917,773.122253 414.329865,769.501892 413.996124,765.443726 
z"/>
<path fill="#BA76F4" opacity="1.000000" stroke="none" 
	d="
M572.451172,998.987915 
	C572.462585,994.934692 575.616577,992.740967 578.250122,990.335266 
	C591.895630,977.870056 605.693176,965.570984 619.315552,953.080872 
	C621.211243,951.342651 624.194275,950.677368 624.960815,947.375366 
	C629.330994,944.432312 634.226379,944.697327 638.963501,944.498047 
	C663.796570,943.453552 688.622375,942.289673 713.420410,940.591980 
	C719.540283,940.172974 725.712097,940.981506 732.258606,939.734009 
	C743.352966,939.878845 753.911194,937.701355 764.973511,938.773193 
	C769.455750,940.682678 767.052734,942.827637 765.483948,944.602417 
	C760.529175,950.208252 754.599243,954.801453 749.071289,959.797424 
	C739.606750,968.351257 730.118713,976.880615 720.723938,985.511597 
	C718.761597,987.314575 716.745300,989.015747 714.259766,990.728638 
	C699.723267,991.665405 685.445374,992.324951 671.171387,993.059326 
	C669.717468,993.134155 668.286743,993.658081 666.422607,993.986816 
	C648.640747,994.367798 631.320801,995.399353 614.024536,996.921814 
	C607.934570,997.457825 601.817871,997.203308 595.686218,997.723022 
	C588.137634,998.363037 580.497192,998.526733 572.451172,998.987915 
z"/>
<path fill="#BE72E9" opacity="1.000000" stroke="none" 
	d="
M714.440063,990.990112 
	C716.834045,986.494995 721.108826,983.362061 724.887024,979.821045 
	C734.164429,971.126099 743.785645,962.799133 753.212830,954.262451 
	C757.964661,949.959473 763.435181,946.375061 766.957153,940.442261 
	C768.183960,937.405212 770.697571,937.507507 772.968628,937.509888 
	C789.758240,937.527710 806.482483,935.983521 823.234253,935.224915 
	C838.147583,934.549622 853.101685,934.115112 867.981750,932.654419 
	C870.137207,932.442871 872.307739,932.320984 874.653442,933.760620 
	C874.819885,936.576599 872.797546,937.743103 871.246033,939.138855 
	C862.528931,946.981506 853.731628,954.734985 844.973022,962.531616 
	C838.803894,968.023010 832.608704,973.486572 826.522156,979.068359 
	C824.846252,980.605286 822.818604,981.933228 822.034546,984.640137 
	C811.622742,985.654907 801.245789,986.326172 790.434387,987.001221 
	C771.860474,987.593994 753.744934,988.557312 735.639771,989.873657 
	C728.739807,990.375366 721.770447,990.005554 714.440063,990.990112 
z"/>
<path fill="#8659B6" opacity="1.000000" stroke="none" 
	d="
M733.250793,940.726868 
	C730.882019,941.299561 728.770325,941.807190 726.639832,941.904968 
	C702.968323,942.992004 679.270386,943.661499 655.631348,945.225098 
	C645.722107,945.880493 635.746582,945.458984 625.445435,947.001953 
	C601.309448,948.312805 577.623291,949.613037 553.934631,950.866150 
	C546.973938,951.234436 540.012024,951.262634 533.037537,951.748474 
	C515.982483,952.936584 498.871094,953.306396 481.784973,954.064453 
	C477.814728,954.240601 473.845093,954.560425 469.893372,954.983765 
	C466.674774,955.328674 465.347321,953.869873 465.095581,950.825317 
	C463.757080,934.638245 462.457825,918.447144 460.972198,902.273315 
	C459.472321,885.943481 457.687500,869.639832 456.183319,853.310364 
	C454.997437,840.436401 454.148224,827.531433 452.968903,814.656799 
	C451.473206,798.328491 449.738464,782.022095 448.213715,765.696350 
	C447.058319,753.325439 446.098480,740.936340 444.999268,728.559998 
	C444.031891,717.667664 442.991943,706.781860 441.939789,695.451538 
	C440.321564,678.532837 438.705170,662.059570 437.187622,645.577271 
	C436.063538,633.368164 435.127441,621.141724 434.000427,608.932922 
	C432.463165,592.279907 430.812988,575.637329 429.232300,558.988281 
	C428.153168,547.621765 427.110016,536.251831 426.024597,524.446594 
	C424.739563,510.002930 423.467590,495.997284 422.226532,481.988861 
	C421.466034,473.404449 420.798126,464.811646 420.008057,456.230011 
	C418.763611,442.713745 417.416748,429.206818 416.197418,415.688354 
	C415.958954,413.044617 416.103607,410.366302 416.043274,407.217773 
	C417.331116,416.939087 418.737427,427.135895 419.946472,437.356049 
	C423.541931,467.749634 427.079590,498.150116 430.602112,528.552246 
	C433.760834,555.814514 436.841522,583.085754 440.007751,610.347168 
	C443.480896,640.251099 447.216614,670.126343 450.434448,700.057495 
	C452.101288,715.561462 454.165863,731.014893 455.363403,746.596619 
	C456.354828,759.496338 458.878510,772.353333 460.372223,785.279053 
	C463.541779,812.707520 466.750610,840.131348 469.955933,867.555603 
	C472.485443,889.197937 475.160065,910.824585 477.461639,932.491028 
	C477.894226,936.563477 479.462189,937.206421 483.046265,936.986267 
	C510.276093,935.313416 537.513123,933.753174 564.752808,932.246765 
	C585.517822,931.098267 606.292480,930.126770 627.058350,928.994019 
	C667.425781,926.792053 707.790161,924.532166 748.576050,922.406616 
	C750.625732,924.926086 748.764160,926.238037 747.271667,927.457153 
	C742.363647,931.466370 738.110168,936.155945 733.250793,940.726868 
z"/>
<path fill="#A765FF" opacity="1.000000" stroke="none" 
	d="
M444.639832,372.004944 
	C444.655975,376.022034 444.306427,380.042816 443.865601,384.489899 
	C439.489044,384.974335 435.203796,385.032471 430.458862,385.024353 
	C433.684448,379.458710 438.490997,375.195404 444.639832,372.004944 
z"/>
<path fill="#A765FF" opacity="1.000000" stroke="none" 
	d="
M414.051697,391.218994 
	C415.171295,392.118286 414.814819,393.707214 414.921661,395.573975 
	C413.513153,394.720978 414.138062,393.095367 414.051697,391.218994 
z"/>
<path fill="#D4D4D4" opacity="1.000000" stroke="none" 
	d="
M585.854126,529.404785 
	C595.387573,529.049133 604.775452,527.620056 614.255127,527.942261 
	C619.371277,528.116150 623.656799,529.593201 627.008850,533.540894 
	C649.193726,559.667419 671.360779,585.809143 693.600769,611.888672 
	C697.981323,617.025513 702.653870,621.913513 707.526733,626.965820 
	C707.162354,632.995789 703.004517,636.990479 699.298706,641.657227 
	C693.311890,645.823975 687.514404,646.607239 681.245789,642.273560 
	C672.719910,633.827698 665.870911,624.406921 658.097839,615.790588 
	C652.888367,610.015930 647.432617,604.455322 642.632935,597.863037 
	C630.315247,582.971191 617.829041,568.686768 605.252075,554.018066 
	C599.692261,546.533997 593.337646,540.170898 587.824951,533.105225 
	C587.012817,532.064331 586.017517,531.135986 585.854126,529.404785 
z"/>
<path fill="#8A53A8" opacity="1.000000" stroke="none" 
	d="
M733.468628,941.003418 
	C735.674561,934.931030 741.323730,931.606201 745.770386,927.197693 
	C747.029358,925.949646 748.826538,925.269104 748.990356,922.848083 
	C749.453430,922.438782 749.910461,922.360596 750.716248,922.317505 
	C751.065002,922.352539 751.525940,922.431763 751.743042,922.344849 
	C760.336182,921.269714 768.840759,922.748169 777.614746,920.966187 
	C778.215698,920.867737 778.376221,920.746521 778.807922,920.757568 
	C787.777527,920.340576 796.475891,919.791321 805.600220,919.257812 
	C806.190979,919.325500 806.355896,919.377502 806.748230,919.304565 
	C845.002563,917.129822 883.029480,915.079895 921.512085,913.080688 
	C922.774048,918.008972 923.338379,922.943542 924.468628,927.744812 
	C925.273560,931.164246 923.829529,932.053406 920.981445,931.909729 
	C912.519104,931.482971 904.141724,932.828247 895.708069,933.027649 
	C889.104370,933.183838 882.508484,933.671570 875.449219,934.057373 
	C858.776001,935.016541 842.565369,935.985352 826.347961,936.820618 
	C818.560791,937.221741 810.769043,937.192688 802.970886,937.815002 
	C792.223694,938.672729 781.407715,938.660950 770.623047,939.070740 
	C769.659302,939.107300 768.709229,939.503723 767.373718,939.918762 
	C755.941345,939.212952 744.971680,941.326843 733.468628,941.003418 
z"/>
<path fill="#03C13E" opacity="1.000000" stroke="none" 
	d="
M736.763062,788.017456 
	C728.038208,805.807556 716.417297,821.590698 706.354736,838.329651 
	C705.586548,839.607483 704.801758,840.875305 703.986572,842.488770 
	C702.086975,845.543396 700.181458,848.227966 698.372131,850.975830 
	C691.869812,860.851379 681.628479,861.599487 674.056946,852.553467 
	C659.348206,834.980225 644.746277,817.317505 629.993286,799.369141 
	C631.461670,796.073181 634.361206,796.518555 636.920776,796.536438 
	C648.544617,796.617432 660.104614,795.101624 672.143433,795.207886 
	C675.176270,795.031311 676.867249,796.663391 678.555176,798.298706 
	C682.032959,801.668091 684.935974,805.537903 687.995422,809.264160 
	C695.807251,818.778687 705.952881,818.303772 712.535339,807.829590 
	C716.252014,801.915588 719.646118,795.797058 723.494080,789.958679 
	C724.682678,788.155273 725.691833,786.134827 728.708496,786.121277 
	C731.603455,786.558594 734.237244,786.292786 736.763062,788.017456 
z"/>
<path fill="#0E9166" opacity="1.000000" stroke="none" 
	d="
M491.407135,631.993896 
	C480.959381,620.117798 470.904114,608.196411 460.948517,596.192383 
	C457.868866,592.479065 457.760834,588.098633 458.335358,583.453674 
	C460.087250,569.290344 461.591858,555.096375 463.294128,540.486389 
	C464.795837,539.909363 465.492188,540.873657 466.122803,541.854492 
	C469.633148,547.314331 474.155884,551.962952 478.456146,557.235291 
	C490.904663,572.336182 503.265137,587.057678 515.670410,602.208191 
	C521.447754,609.229431 527.455078,615.605408 532.371948,622.855347 
	C533.333923,624.273682 534.987244,625.583008 533.583740,627.978516 
	C528.594849,630.218811 523.621033,630.343262 518.637451,630.481934 
	C509.692780,630.730835 500.671051,629.579102 491.407135,631.993896 
z"/>
<path fill="#0A9E5B" opacity="1.000000" stroke="none" 
	d="
M491.066101,632.393738 
	C493.005890,628.618896 496.662262,629.271179 499.651276,629.116394 
	C506.632416,628.755188 513.644897,628.993286 520.644714,629.002625 
	C524.972290,629.008362 529.163940,628.037048 533.768921,627.118164 
	C536.342957,626.630676 537.474243,628.242493 538.580872,629.595459 
	C547.455200,640.444946 556.576660,651.088806 565.679932,662.217468 
	C571.568237,669.003357 576.765930,675.892395 582.429382,682.396912 
	C583.732788,683.893860 584.983765,685.542847 583.755188,688.101440 
	C581.266479,690.672058 578.361816,690.534973 575.568665,690.449951 
	C564.283447,690.106384 553.076294,691.378662 541.401001,692.021362 
	C527.027588,675.473328 513.089355,658.848755 499.149292,642.225708 
	C496.488556,639.052856 493.820587,635.886108 491.066101,632.393738 
z"/>
<path fill="#07AA50" opacity="1.000000" stroke="none" 
	d="
M541.072998,692.415283 
	C541.270142,689.673096 543.124146,689.998901 544.747498,690.008118 
	C555.817261,690.071045 566.831299,688.280457 577.918762,689.009705 
	C579.990173,689.145935 581.872437,688.819519 583.768738,687.140991 
	C586.826355,686.672424 587.748718,688.912476 589.091675,690.497314 
	C598.860229,702.025513 608.323608,713.809998 618.470886,725.498840 
	C621.392517,729.473877 624.426575,732.886658 627.280396,736.443481 
	C628.752197,738.277710 630.833069,739.964783 630.175781,743.165955 
	C627.766479,745.939148 624.801025,745.488770 622.037781,745.460327 
	C610.571960,745.342590 599.168518,746.268555 587.319641,747.278198 
	C577.333374,735.959229 567.771973,724.683350 558.266541,713.360535 
	C552.526001,706.522522 546.872253,699.611450 541.072998,692.415283 
z"/>
<path fill="#05B646" opacity="1.000000" stroke="none" 
	d="
M586.976685,747.571777 
	C588.402710,745.051453 590.696350,744.979309 593.054138,744.993164 
	C603.914551,745.056885 614.719604,743.313416 625.601013,743.990356 
	C627.096497,744.083435 628.604675,744.069702 629.821533,742.312134 
	C632.101807,741.457397 632.937622,743.100037 633.960510,744.324768 
	C647.108276,760.067017 660.146729,775.899231 673.002563,791.881287 
	C673.835815,792.917175 674.732544,793.919922 674.254211,795.698669 
	C672.242920,797.086670 670.250061,797.088013 668.251892,796.996277 
	C656.652954,796.463806 645.136780,798.691956 633.530273,798.046082 
	C632.592285,797.993835 631.624512,798.477661 630.278442,798.879395 
	C615.618286,781.993958 601.350220,764.941345 586.976685,747.571777 
z"/>
<path fill="#56D679" opacity="1.000000" stroke="none" 
	d="
M478.334961,558.239990 
	C472.708099,552.614929 467.858337,546.897888 463.628906,540.277039 
	C463.187592,528.144836 468.497620,522.371826 480.073425,521.995972 
	C502.790039,521.258362 525.507935,520.558167 548.224304,519.812866 
	C553.526489,519.638977 558.868042,519.691589 564.115356,519.033142 
	C573.320801,517.878052 580.369568,520.899170 585.653442,528.882690 
	C592.502441,536.840454 599.069153,544.619873 605.734253,552.712585 
	C600.710876,556.804382 594.861450,555.183655 588.812195,555.196411 
	C585.972290,554.508240 584.468323,552.729980 582.949768,550.935425 
	C580.045227,547.503052 576.996704,544.162292 574.313965,540.580078 
	C571.297058,536.551758 567.704651,535.161377 562.750305,535.314087 
	C538.470581,536.061829 514.208801,537.444275 489.907135,537.488831 
	C487.796295,537.492676 484.784790,537.161316 483.937653,539.069641 
	C483.031006,541.112061 485.819275,542.634155 487.085724,544.271667 
	C489.120270,546.902283 491.322540,549.411316 493.429291,551.991638 
	C494.577393,553.397888 495.938568,554.754822 495.026245,557.188843 
	C489.479492,559.087341 484.102478,558.679382 478.334961,558.239990 
z"/>
<path fill="#4BD969" opacity="1.000000" stroke="none" 
	d="
M768.532471,529.120789 
	C773.918030,528.962952 779.033386,528.996521 784.626953,529.055664 
	C784.871155,531.535828 782.860596,533.122375 782.015991,535.649780 
	C780.643677,541.829590 776.559448,546.166138 773.610718,551.088501 
	C767.138611,561.892639 760.334656,572.498535 753.773865,583.252075 
	C752.645935,585.100769 751.552185,586.967468 749.036255,588.002686 
	C743.630127,588.480225 738.603394,589.191528 733.327148,587.308228 
	C743.085754,570.443542 753.168701,553.884827 763.263123,537.333130 
	C764.903381,534.643616 766.594604,531.985107 768.532471,529.120789 
z"/>
<path fill="#3FDE5B" opacity="1.000000" stroke="none" 
	d="
M732.726074,587.198120 
	C738.349487,586.999268 743.700073,586.998657 749.517212,586.994263 
	C750.838745,589.245667 749.191223,590.700684 748.211548,592.326294 
	C745.498596,596.828308 742.466736,601.135010 739.786743,606.090942 
	C733.396851,616.719849 726.795776,626.782349 720.501709,637.036377 
	C719.211365,639.138550 718.112122,641.431641 714.997925,642.201599 
	C709.520813,642.365051 704.408020,643.315430 699.109741,641.232910 
	C701.765442,636.490662 704.737061,632.077087 707.785156,627.339478 
	C716.058899,613.809021 724.256042,600.602661 732.726074,587.198120 
z"/>
<path fill="#A075D3" opacity="1.000000" stroke="none" 
	d="
M778.963440,920.786682 
	C778.910889,920.934204 778.742676,920.978638 778.314819,921.005981 
	C778.243835,920.703308 778.508057,920.601501 778.963440,920.786682 
z"/>
<path fill="#8659B6" opacity="1.000000" stroke="none" 
	d="
M751.728760,922.210083 
	C751.960144,922.257996 751.673645,922.585083 751.673645,922.585083 
	C751.673645,922.585083 751.261475,922.575806 751.163208,922.464172 
	C751.065002,922.352539 751.497437,922.162170 751.728760,922.210083 
z"/>
<path fill="#A075D3" opacity="1.000000" stroke="none" 
	d="
M806.731018,919.130493 
	C806.975586,919.179749 806.669434,919.526550 806.669434,919.526550 
	C806.669434,919.526550 806.225037,919.520203 806.125549,919.396851 
	C806.026062,919.273560 806.486450,919.081177 806.731018,919.130493 
z"/>
<path fill="#23D061" opacity="1.000000" stroke="none" 
	d="
M739.168518,606.431824 
	C741.505188,599.257019 746.358948,593.877075 749.854248,587.308899 
	C760.464600,570.123474 770.945435,553.256409 781.696655,536.193115 
	C789.656494,537.990356 797.464783,536.989868 805.203247,536.632019 
	C807.448792,536.528137 809.771057,535.942383 812.081665,536.017029 
	C828.353088,536.542419 844.566956,534.242981 860.835876,535.046631 
	C863.146301,535.160828 865.225159,533.094543 867.844360,534.836182 
	C868.115723,538.538208 865.045044,540.400879 863.999695,543.648010 
	C859.085693,549.888855 855.464233,556.596008 851.419006,563.016724 
	C844.887146,573.384155 838.502930,583.844666 832.014404,594.619629 
	C829.996948,599.359192 828.504272,604.114746 823.000610,606.217773 
	C801.553833,607.471436 780.524414,608.362976 759.470764,608.522522 
	C755.974182,608.549072 752.527405,608.942993 749.060303,609.290710 
	C745.594971,609.638062 742.031189,609.888000 739.168518,606.431824 
z"/>
<path fill="#0A9E5B" opacity="1.000000" stroke="none" 
	d="
M820.481812,639.908691 
	C823.503235,641.805481 826.769348,640.285645 829.808960,641.811890 
	C814.667847,666.646362 799.263184,691.175964 783.597534,715.904175 
	C780.253784,717.869995 777.152893,717.966431 773.773682,715.882996 
	C772.196594,711.356201 775.293396,708.651733 777.150085,705.702637 
	C787.061951,689.958801 797.025757,674.247803 807.020020,658.123779 
	C810.607727,653.324707 813.149536,648.278748 816.426086,643.714050 
	C817.471008,642.258362 818.226807,640.509949 820.481812,639.908691 
z"/>
<path fill="#05B646" opacity="1.000000" stroke="none" 
	d="
M773.605713,713.859741 
	C775.899292,718.132935 779.670166,715.003479 782.867615,716.072510 
	C768.341553,739.929688 753.347534,763.757263 738.337524,787.574707 
	C738.176086,787.830811 737.804871,787.954712 737.259766,788.263184 
	C734.227112,787.563110 731.198425,788.676147 728.113586,787.040527 
	C726.803833,784.377441 728.669312,782.751831 729.729980,781.003967 
	C737.162109,768.755554 744.858826,756.669983 752.529968,744.570618 
	C757.254272,737.119141 761.334473,729.257446 766.898926,721.911255 
	C769.177551,719.025085 769.863220,715.343201 773.605713,713.859741 
z"/>
<path fill="#3FDE5B" opacity="1.000000" stroke="none" 
	d="
M820.923706,639.604492 
	C815.934631,645.282043 813.102722,652.027527 808.443542,657.903320 
	C803.417542,658.452454 798.609863,659.485779 793.910156,656.451477 
	C792.797791,654.422791 793.375732,652.863342 794.279907,651.418396 
	C803.896851,636.049744 813.279968,620.531799 823.753540,605.278076 
	C827.842651,602.815002 828.210632,597.994690 831.673706,595.133179 
	C833.688843,596.849670 835.670227,597.363342 838.131653,596.485046 
	C840.844849,595.517029 843.576843,595.852844 846.635254,596.960083 
	C839.174255,609.657776 831.301331,622.299866 823.447388,634.953613 
	C822.578186,636.353943 821.817749,637.821716 820.923706,639.604492 
z"/>
<path fill="#3FDE5B" opacity="1.000000" stroke="none" 
	d="
M642.751160,596.734558 
	C654.061462,609.544067 664.957092,622.165833 675.860168,634.781189 
	C677.483582,636.659485 679.141846,638.507568 680.938354,640.668091 
	C676.247559,645.054138 670.489136,642.966492 664.683105,643.296143 
	C659.655396,642.492859 658.287109,637.980957 655.247681,635.393555 
	C653.880493,634.229675 652.982727,632.608154 651.557129,630.967407 
	C643.273499,621.260803 635.247009,611.828247 627.235291,602.383179 
	C625.933167,600.848145 624.633057,599.282898 626.111084,596.779175 
	C631.723816,594.931458 637.034241,594.931213 642.751160,596.734558 
z"/>
<path fill="#4BD969" opacity="1.000000" stroke="none" 
	d="
M643.026489,596.613892 
	C637.640564,597.332825 632.078430,596.440186 626.284851,597.728577 
	C623.945496,598.632080 623.072083,596.856262 621.511475,595.697021 
	C610.802185,583.362061 600.683105,570.987549 590.078369,559.027893 
	C588.979553,557.788696 587.996582,556.411072 587.867004,554.344238 
	C593.673767,553.935852 599.392517,554.396912 605.418213,553.021362 
	C618.184937,567.451721 630.537231,581.877563 643.026489,596.613892 
z"/>
<path fill="#32E74C" opacity="1.000000" stroke="none" 
	d="
M662.902710,642.396729 
	C668.752808,641.765869 674.568726,642.702881 680.663086,640.990967 
	C686.739197,644.449585 692.408752,644.924988 698.452637,641.000793 
	C704.216614,640.938232 709.639465,640.972351 715.529907,641.007996 
	C717.364868,642.956177 716.088318,644.493164 715.102478,645.957092 
	C708.257629,656.121826 698.561584,660.440247 686.523926,659.217163 
	C675.707275,658.118286 667.656067,652.670166 662.902710,642.396729 
z"/>
<path fill="#38F242" opacity="1.000000" stroke="none" 
	d="
M767.948730,721.508606 
	C757.699890,738.453064 747.404724,754.908569 737.125427,771.374023 
	C734.046509,776.305786 731.011780,781.265137 727.828918,786.539185 
	C722.712463,792.222473 719.516663,798.747803 715.878662,804.985168 
	C712.129211,811.413452 708.440430,817.678467 699.356812,817.181152 
	C693.997864,816.887756 690.336182,814.357239 687.194946,810.412415 
	C683.265015,805.477051 679.442078,800.437988 674.334961,796.135742 
	C670.866760,790.192871 666.212158,785.505188 662.128479,780.418701 
	C651.804138,767.559021 641.140015,754.972168 630.313721,742.119141 
	C626.008606,736.879578 622.001831,731.796814 617.915649,726.373718 
	C619.470581,723.614258 622.056396,723.416565 624.535767,723.502136 
	C638.041931,723.967529 651.503967,722.716309 664.970886,722.236023 
	C688.916321,721.382019 712.888672,721.149475 736.812622,719.601318 
	C745.622375,719.031250 754.470337,719.395691 763.300598,719.493958 
	C764.963745,719.512451 766.653870,719.670166 767.948730,721.508606 
z"/>
<path fill="#3FDE5B" opacity="1.000000" stroke="none" 
	d="
M565.384766,662.944824 
	C554.901062,651.097412 544.812439,639.185181 534.438354,627.118530 
	C527.869751,619.156067 521.586670,611.347900 515.175110,603.229126 
	C515.438782,599.665344 518.135315,600.029297 520.257263,599.767090 
	C523.007812,599.427307 525.843262,599.875000 528.916504,598.797241 
	C530.084595,598.488831 530.843750,598.594910 531.908203,599.096619 
	C542.129028,610.660950 551.630249,622.371887 561.540894,634.206604 
	C567.089905,640.416077 571.722717,646.912231 576.896667,652.968079 
	C578.193787,654.486389 579.129089,656.264709 579.581299,658.637268 
	C578.584167,661.937866 576.049072,662.134155 573.591675,662.281006 
	C570.983093,662.436768 568.362549,662.391724 565.384766,662.944824 
z"/>
<path fill="#4BD969" opacity="1.000000" stroke="none" 
	d="
M530.125000,598.640930 
	C528.848633,601.508972 526.548950,600.889343 524.496826,601.005005 
	C521.467896,601.175720 518.275879,600.288452 515.286255,602.629578 
	C502.773926,588.157898 490.501312,573.397400 478.081360,558.333496 
	C483.257568,556.638977 488.694977,557.030396 494.572754,556.997070 
	C497.286224,556.458496 498.384064,558.171753 499.494537,559.493103 
	C509.186768,571.025818 518.655334,582.743896 528.243774,594.362915 
	C529.188721,595.508057 530.045105,596.750977 530.125000,598.640930 
z"/>
<path fill="#32E74C" opacity="1.000000" stroke="none" 
	d="
M565.140747,663.307617 
	C565.769958,659.736084 568.422546,661.320312 570.297852,661.027771 
	C573.242004,660.568542 576.691956,662.119202 578.929810,658.376099 
	C581.006409,657.637939 581.992004,659.145203 583.097290,660.326538 
	C585.257263,662.634949 587.550476,664.811829 589.719299,667.107361 
	C592.513550,670.064758 595.884949,671.682556 599.936584,671.450256 
	C614.362244,670.622864 628.829407,670.902710 643.242188,669.782471 
	C644.236389,669.705261 645.229370,669.520813 646.224792,669.557617 
	C661.858948,670.136597 677.464294,668.871155 693.055664,668.293884 
	C715.950623,667.446228 738.883301,667.347107 761.747498,665.644165 
	C766.227722,665.310486 770.733765,665.357727 775.212036,665.550354 
	C781.248413,665.810059 785.871155,663.643799 789.186035,658.578247 
	C790.178223,657.061951 791.204651,655.492249 793.549438,654.943726 
	C795.051880,657.321350 797.152466,656.902771 799.105713,657.017334 
	C801.865845,657.179260 804.714844,656.390320 807.767151,657.910889 
	C801.691956,670.190613 793.666565,681.334229 786.581116,693.058533 
	C782.486694,699.833496 778.242249,706.517761 774.013550,713.587524 
	C771.357849,715.928650 770.319885,719.031067 768.264282,721.801392 
	C766.851929,720.585571 765.255798,721.065125 763.809448,721.007935 
	C745.197632,720.271667 726.622437,721.798645 708.034790,722.214600 
	C688.822266,722.644531 669.581238,723.269226 650.398804,724.303955 
	C639.845825,724.873169 629.162720,723.637451 618.269287,725.977173 
	C610.460144,719.108459 604.803650,710.699829 598.129578,703.166443 
	C593.533325,697.978455 589.170776,692.583374 584.415161,687.127441 
	C577.848328,679.184570 571.570129,671.395020 565.140747,663.307617 
z"/>
<path fill="#22CF63" opacity="1.000000" stroke="none" 
	d="
M530.264893,599.090576 
	C519.002747,584.710571 507.697174,570.688843 495.337982,557.143799 
	C491.666626,550.866089 486.404602,546.223877 482.214996,540.735962 
	C481.535675,539.846069 480.131409,539.214844 480.493774,537.925415 
	C480.916626,536.420837 482.462616,537.210327 483.501556,536.929016 
	C487.894501,535.739685 492.385498,535.942627 496.855347,536.008545 
	C512.961243,536.246155 529.024780,534.881897 545.128296,534.691345 
	C552.368408,534.605652 559.688293,534.285889 566.966003,533.944641 
	C569.743347,533.814331 571.431763,534.916382 573.178162,537.120728 
	C577.695251,542.822327 582.625488,548.196594 587.688477,553.855286 
	C594.721497,563.466248 602.994080,571.641968 610.228516,580.685913 
	C613.949158,585.337219 617.880615,589.820007 621.867310,594.677979 
	C621.146179,598.748718 617.956909,598.380798 615.298828,598.474182 
	C607.348938,598.753357 599.389099,599.104919 591.453491,599.303772 
	C572.559387,599.777283 553.679504,600.835876 534.774902,600.888367 
	C534.106995,600.890198 533.463623,600.707642 532.419983,600.233337 
	C531.506348,599.736511 531.014954,599.468201 530.264893,599.090576 
z"/>
<path fill="#2BDE55" opacity="1.000000" stroke="none" 
	d="
M794.038086,654.643250 
	C791.096985,656.876587 790.203735,660.337036 787.881897,662.732910 
	C785.151855,665.550049 782.091797,667.105347 778.203491,666.994629 
	C763.405518,666.572998 748.644592,667.853394 733.867920,668.223938 
	C713.969299,668.722900 694.065369,669.474609 674.165771,670.156555 
	C655.097961,670.809875 636.044800,671.790771 616.960510,672.171265 
	C611.539307,672.279358 606.063660,672.826233 600.599304,673.054077 
	C595.577698,673.263428 591.556396,671.755920 588.298462,667.856018 
	C585.539368,664.553284 582.509033,661.477112 579.298157,658.150391 
	C573.093811,650.535217 567.190002,643.070374 561.138916,635.303955 
	C562.878906,633.157166 565.305542,633.479065 567.589417,633.475098 
	C592.337402,633.432251 617.027161,631.283936 641.778320,631.445984 
	C645.006348,631.467102 647.934021,630.111328 651.540833,629.908447 
	C655.471375,633.899597 658.935425,637.803467 662.702148,641.857300 
	C667.807373,648.941956 673.299988,654.761353 681.925415,657.212280 
	C695.313110,661.016479 710.085571,654.535645 715.962585,641.362061 
	C720.916748,635.238647 724.143311,628.355591 728.376953,622.129761 
	C731.882874,616.974060 735.056824,611.592590 738.680298,606.155579 
	C742.746216,608.385559 746.791321,608.472961 750.985718,607.520142 
	C752.109253,607.264954 753.277100,606.984436 754.411621,607.031189 
	C771.039734,607.716248 787.601807,605.641479 804.229614,605.896423 
	C810.492004,605.992493 816.756531,604.615662 823.545044,605.007568 
	C821.523010,611.527344 817.182373,616.978271 813.630615,622.873047 
	C807.265137,633.437805 800.610168,643.828125 794.038086,654.643250 
z"/>
<path fill="#28D959" opacity="1.000000" stroke="none" 
	d="
M651.859619,629.695557 
	C649.121582,632.142761 645.917297,632.997253 642.288452,633.047058 
	C625.742554,633.273743 609.158875,633.084656 592.669067,634.215210 
	C582.398499,634.919373 572.171875,634.667175 561.461060,635.001526 
	C551.424805,623.537964 541.858032,612.073486 532.144531,600.306885 
	C536.875549,598.745239 541.856567,598.899109 546.818787,599.015198 
	C561.752136,599.364563 576.640259,597.982605 591.562378,597.715698 
	C599.969788,597.565308 608.430847,597.210632 616.869446,597.023743 
	C618.603699,596.985352 620.139282,596.585815 621.776855,595.283081 
	C623.155640,595.900452 624.293396,596.823975 625.713928,597.889771 
	C628.874268,604.113953 634.244995,608.244629 638.186401,613.509949 
	C642.345825,619.066467 647.175232,624.121338 651.859619,629.695557 
z"/>
</svg>