<?xml version="1.0" standalone="no"?>
<!DOCTYPE svg PUBLIC "-//W3C//DTD SVG 20010904//EN"
 "http://www.w3.org/TR/2001/REC-SVG-20010904/DTD/svg10.dtd">
<svg version="1.0" xmlns="http://www.w3.org/2000/svg"
 width="1301.000000pt" height="1301.000000pt" viewBox="0 0 1301.000000 1301.000000"
 preserveAspectRatio="xMidYMid meet">

<g transform="translate(0.000000,1301.000000) scale(0.100000,-0.100000)"
fill="#000000" stroke="none">
<path d="M6189 10976 c-138 -37 -227 -151 -199 -254 23 -88 91 -149 197 -178
111 -30 226 -5 308 67 133 118 76 301 -113 359 -72 23 -126 24 -193 6z"/>
<path d="M5573 10836 c-44 -41 -82 -88 -104 -128 -32 -59 -34 -69 -34 -158 0
-83 4 -103 28 -154 32 -69 88 -146 128 -175 26 -19 33 -20 112 -9 l85 11 -42
34 c-119 98 -156 182 -156 353 0 102 14 170 48 237 39 75 25 72 -65 -11z"/>
<path d="M3895 9521 c-69 -7 -93 -19 -129 -61 -44 -53 -46 -83 -25 -288 11
-103 41 -391 67 -640 l47 -454 168 152 c92 84 169 151 171 149 1 -2 35 -362
75 -799 296 -3218 378 -4100 383 -4105 3 -3 930 41 2059 99 1130 58 2160 111
2289 117 129 6 236 13 238 14 5 4 -20 162 -27 174 -4 5 -866 -38 -2176 -110
-1193 -65 -2192 -118 -2220 -117 l-49 3 -307 2640 c-169 1452 -313 2690 -321
2750 -10 77 -11 112 -4 117 6 3 75 8 154 10 l142 3 0 -122 0 -123 53 0 c28 0
844 27 1812 60 968 33 1779 60 1802 60 l42 0 23 78 24 77 -37 3 c-20 2 -850
-25 -1844 -58 -993 -34 -1813 -59 -1821 -56 -24 9 -17 248 12 404 l6 32 -273
-2 c-151 0 -301 -4 -334 -7z"/>
<path d="M3456 9309 c-27 -63 -71 -161 -97 -219 -30 -65 -51 -127 -54 -160 -5
-38 74 -838 259 -2650 147 -1427 291 -2839 322 -3137 40 -392 60 -558 74 -599
47 -134 168 -234 315 -258 22 -3 1203 59 2625 138 2316 130 2591 147 2642 165
110 38 185 107 232 213 13 29 69 154 125 278 110 247 125 302 110 410 -8 52
-314 1730 -335 1833 -5 26 -7 27 -72 27 -59 -1 -71 -4 -101 -30 l-35 -30 32
-182 c18 -101 94 -522 169 -936 124 -685 135 -756 124 -792 -15 -51 -70 -106
-118 -119 -21 -5 -330 -26 -688 -46 -357 -20 -756 -42 -886 -50 -130 -8 -962
-55 -1850 -104 -888 -50 -1639 -92 -1669 -94 -97 -7 -165 24 -200 93 -19 37
-43 258 -211 1895 -24 241 -25 245 -47 245 -16 1 -16 1 1 14 9 7 17 21 17 30
0 14 -15 16 -107 16 l-108 0 -78 753 c-43 413 -134 1297 -203 1962 -69 666
-129 1264 -132 1329 l-7 119 -49 -114z"/>
<path d="M9545 8757 c-480 -759 -704 -1115 -1184 -1877 -227 -360 -442 -700
-476 -755 l-64 -100 27 -6 c26 -6 26 -7 -5 -8 -22 -1 -36 -8 -43 -22 -11 -19
-9 -20 41 -17 l53 3 121 191 c391 619 738 1164 741 1161 3 -3 114 -599 114
-612 0 -5 59 84 130 197 l130 206 -55 289 c-30 159 -55 300 -55 313 0 27 101
193 508 835 133 209 156 253 259 489 62 143 112 261 110 262 -2 2 -160 -245
-352 -549z"/>
<path d="M4627 7600 c-3 -8 -16 -118 -30 -244 -21 -186 -23 -235 -14 -259 7
-16 230 -292 497 -612 l485 -583 96 -1 c53 -1 157 2 233 6 132 6 136 7 120 25
-11 11 -33 19 -58 20 -37 1 -38 2 -8 5 17 2 32 6 32 8 0 6 -456 557 -1068
1294 -145 174 -267 325 -272 336 -6 16 -9 17 -13 5z m1151 -1657 c-26 -2 -71
-2 -100 0 -29 2 -8 3 47 3 55 0 79 -1 53 -3z"/>
</g>
</svg>
